<?xml version="1.0" encoding="UTF-8" standalone="no"?>
<!-- Created with Inkscape (http://www.inkscape.org/) -->

<svg
   xmlns:dc="http://purl.org/dc/elements/1.1/"
   xmlns:cc="http://creativecommons.org/ns#"
   xmlns:rdf="http://www.w3.org/1999/02/22-rdf-syntax-ns#"
   xmlns:svg="http://www.w3.org/2000/svg"
   xmlns="http://www.w3.org/2000/svg"
   xmlns:sodipodi="http://sodipodi.sourceforge.net/DTD/sodipodi-0.dtd"
   xmlns:inkscape="http://www.inkscape.org/namespaces/inkscape"
   width="220mm"
   height="220mm"
   viewBox="0 0 220.00294 220"
   version="1.1"
   id="svg8"
   inkscape:version="0.92.4 (5da689c313, 2019-01-14)"
   sodipodi:docname="braas.svg"
   inkscape:export-filename="D:\Alex\Desktop\braas.png"
   inkscape:export-xdpi="96"
   inkscape:export-ydpi="96">
  <defs
     id="defs2" />
  <sodipodi:namedview
     id="base"
     pagecolor="#ffffff"
     bordercolor="#666666"
     borderopacity="1.0"
     inkscape:pageopacity="0.0"
     inkscape:pageshadow="2"
     inkscape:zoom="0.34296751"
     inkscape:cx="773.1236"
     inkscape:cy="486.23526"
     inkscape:document-units="mm"
     inkscape:current-layer="layer1"
     showgrid="false"
     fit-margin-top="0"
     fit-margin-left="0"
     fit-margin-right="0"
     fit-margin-bottom="0"
     viewbox-width="298.42"
     inkscape:window-width="1920"
     inkscape:window-height="1001"
     inkscape:window-x="-9"
     inkscape:window-y="-9"
     inkscape:window-maximized="1" />
  <metadata
     id="metadata5">
    <rdf:RDF>
      <cc:Work
         rdf:about="">
        <dc:format>image/svg+xml</dc:format>
        <dc:type
           rdf:resource="http://purl.org/dc/dcmitype/StillImage" />
        <dc:title></dc:title>
      </cc:Work>
    </rdf:RDF>
  </metadata>
  <g
     inkscape:groupmode="layer"
     id="layer3"
     inkscape:label="Capa 2"
     style="display:inline"
     transform="translate(24.550276,-15.399477)" />
  <g
     inkscape:groupmode="layer"
     id="layer4"
     inkscape:label="Capa 3"
     transform="translate(24.550276,-15.399477)">
    <g
       id="g1006"
       transform="translate(291.3112,35.9394)">
      <g
         transform="translate(33.426948,3.7532302)"
         id="g889"
         style="display:inline">
        <path
           sodipodi:nodetypes="scsscccccccccccccccscsccscccscccccscsscscccccsccscscsccsssccccsccccsccscccsccccscscccsccscccsccscccccccccc"
           inkscape:connector-curvature="0"
           id="path907"
           d="m -212.38086,180.06785 c 0,-0.3638 0.0601,-0.51263 0.13345,-0.33073 0.0734,0.1819 0.0734,0.47956 0,0.66146 -0.0734,0.1819 -0.13345,0.0331 -0.13345,-0.33073 z m -0.0418,-9.06239 c 0,-0.69606 0.29925,-1.25629 0.81987,-1.53492 0.45012,-0.2409 0.44325,-0.17694 -0.0789,0.73496 -0.73938,1.29119 -0.74094,1.29286 -0.74094,0.79996 z m 4.18029,-3.37809 c 0.48014,-0.29274 0.79882,-0.65226 0.70817,-0.79894 -0.21303,-0.34468 -2.95457,-1.58516 -5.74006,-2.59723 -2.32827,-0.84594 -7.2255,-2.00658 -10.19034,-2.41511 -0.98469,-0.13568 -3.10004,-0.42709 -4.70077,-0.64757 -1.60072,-0.22049 -4.69635,-0.46113 -6.87916,-0.53476 -6.53677,-0.22051 -11.79333,-0.61774 -13.75834,-1.0397 -2.60153,-0.55864 -8.19888,-2.19549 -9.06505,-2.65092 -1.56848,-0.8247 -5.08165,-3.02274 -5.50006,-3.44115 -25.35846,-15.41869 -51.97151,-29.02837 -78.88786,-45.33235 -1.64263,-1.00827 -3.25224,-2.43646 -3.25224,-2.88567 0,-0.20592 -0.17859,-0.44292 -0.39687,-0.52669 -0.30601,-0.11742 -0.39688,-0.6265 -0.39688,-2.22343 0,-2.35003 0.23829,-3.159641 1.27876,-4.344662 0.40195,-0.457796 0.87679,-1.184781 1.05521,-1.61552 0.37886,-0.914654 1.64352,-1.647727 4.67749,-2.71137 2.15441,-0.755288 2.56245,-1.201605 1.5875,-1.736434 -2.83074,-1.552856 -5.25789,-3.77611 -5.59686,-5.126678 -0.0885,-0.352488 -0.0961,-1.267944 -0.017,-2.034349 0.1994,-1.931932 2.26407,-4.991193 3.92737,-5.819249 0.63655,-0.316899 1.96601,-1.029411 2.95436,-1.583356 2.24495,-1.258248 3.04833,-1.462456 6.64849,-1.689939 1.58908,-0.100412 2.92627,-0.301628 2.97154,-0.447149 0.0453,-0.14552 -0.7191,-0.729302 -1.69861,-1.297291 -2.96859,-1.721414 -3.65435,-2.245006 -4.52119,-3.452072 -0.7435,-1.035307 -0.8316,-1.354778 -0.8316,-3.015728 0,-2.339594 0.16767,-2.754628 1.82556,-4.518692 0.74219,-0.789726 1.34944,-1.529278 1.34944,-1.643447 0,-0.11417 0.50602,-0.342125 1.12448,-0.506567 0.61846,-0.164442 1.48167,-0.513591 1.91823,-0.775886 1.26056,-0.75737 5.06924,-1.626568 7.81185,-1.782784 2.74057,-0.1561 7.76197,0.608526 9.45176,1.439251 0.80573,0.396112 0.89406,0.391178 1.41356,-0.07897 0.91262,-0.825907 1.15893,-3.43558 1.19593,-5.500424 v 0 l 1.83743,-1.682673 c 2.58845,-2.370433 6.13039,-4.136035 9.09856,-4.535488 2.56623,-0.345362 7.26571,-0.37181 9.93679,-0.05592 2.17093,0.256738 6.16626,1.879685 8.98486,3.649757 2.62586,1.649027 6.12734,3.729966 7.68389,4.566561 3.30577,1.77674 8.76878,4.859275 9.12813,5.150599 0.21828,0.176962 1.64703,1.014547 3.175,1.861299 1.52797,0.846753 3.22206,1.819949 3.76464,2.162659 0.54258,0.342709 1.09026,0.623107 1.21707,0.623107 0.12681,0 0.71203,0.348774 1.30049,0.775052 0.58846,0.426279 1.70765,1.094696 2.48709,1.485372 0.77944,0.390675 1.59576,0.861244 1.81404,1.045709 0.21828,0.184465 1.82563,1.134713 3.57188,2.111663 1.74625,0.976951 4.24656,2.421271 5.55625,3.209603 1.30969,0.788331 2.66469,1.553879 3.01112,1.70122 0.34642,0.147341 0.95342,0.498287 1.34888,0.779878 2.05762,1.465151 7.50038,4.268354 8.15841,4.201848 0.4758,-0.04809 0.96405,0.164563 1.47699,0.643284 0.42144,0.393316 0.88831,0.715121 1.0375,0.715121 0.1492,0 0.45923,0.16415 0.68897,0.364781 0.89475,0.781373 4.58734,2.582886 4.81911,2.351114 0.1425,-0.142499 0.0315,-0.766432 -0.27458,-1.543677 -0.28256,-0.717479 -0.80178,-2.197478 -1.15382,-3.288885 -0.35203,-1.091406 -1.60492,-4.855863 -2.78419,-8.365463 -1.91103,-5.687359 -2.16406,-6.670439 -2.32744,-9.042614 -0.17496,-2.540417 -0.15271,-2.713576 0.4892,-3.80537 0.86887,-1.477829 4.48485,-4.980302 5.1417,-4.980302 0.27828,0 0.90942,-0.297656 1.40252,-0.661459 0.49311,-0.363802 1.14132,-0.664073 1.44047,-0.667269 0.29915,-0.0032 1.07969,-0.251147 1.73453,-0.551002 1.37381,-0.629072 6.39168,-1.560613 8.33438,-1.547234 2.59788,0.01789 8.43248,0.974356 10.05417,1.648181 3.72439,1.547519 4.51397,2.021278 5.90808,3.544899 1.49346,1.632219 2.81725,4.410094 3.10649,6.518769 0.0836,0.609303 0.31376,1.524542 0.51152,2.033865 0.51879,1.336082 3.3062,10.653511 3.3062,11.051553 0,0.184507 0.29765,1.187426 0.66146,2.228707 0.3638,1.041281 0.66145,2.049399 0.66145,2.240259 0,0.190862 0.43968,1.485521 0.97706,2.877018 1.02816,2.662311 1.38449,3.119588 4.71149,6.046253 0.87312,0.768061 1.86032,1.579972 2.19377,1.804244 0.33345,0.224271 2.16274,1.87969 4.06509,3.678708 1.90235,1.799021 3.71312,3.443613 4.02394,3.654653 0.31081,0.211039 1.57714,1.324009 2.81407,2.473266 2.20016,2.04422 3.66312,3.83231 4.75215,5.8083 0.29852,0.54165 0.89065,1.38104 1.31585,1.86531 0.42519,0.48427 1.38498,2.24376 2.13285,3.90996 0.74789,1.66621 1.58989,3.51877 1.87113,4.11679 0.43506,0.92508 0.51135,1.68532 0.51135,5.09531 v 4.008 l -1.32291,2.32675 c -0.72761,1.2797 -1.32292,2.59013 -1.32292,2.91206 0,0.65236 1.40863,2.07893 2.29011,2.31926 0.48492,0.13222 0.86764,0.77904 0.88128,1.48944 0.007,0.35205 -1.18356,1.31223 -2.39426,1.93136 -0.66398,0.33954 -1.36317,0.80523 -1.55375,1.03487 -0.19058,0.22963 -0.6002,0.41751 -0.91027,0.41751 -17.1696,8.43784 -31.87107,18.95382 -47.26103,27.35536 -1.52797,0.83275 -3.18268,1.80503 -3.67714,2.16062 -0.49447,0.35559 -1.08978,0.64608 -1.32292,0.64553 -0.24089,-5.3e-4 -0.047,-0.23078 0.4491,-0.53324 z"
           style="fill:#fddaa5;stroke-width:0.26458335" />
        <path
           sodipodi:nodetypes="scccccccccccccsscccsccscsccccsccccssccscsccccccsccccccscccccccccscccccccs"
           inkscape:connector-curvature="0"
           id="path903"
           d="m -215.59764,181.5104 c -7.62991,-1.86296 -11.32333,-2.41797 -18.38854,-2.76326 -5.27904,-0.25799 -13.47891,-0.963 -14.15521,-1.21704 -0.21828,-0.082 -1.43875,-0.31896 -2.71216,-0.5266 -1.2734,-0.20764 -2.94028,-0.61829 -3.70416,-0.91255 -0.76389,-0.29427 -1.91038,-0.65492 -2.54777,-0.80144 -0.64258,-0.14772 -1.63003,-0.66969 -2.21642,-1.17161 -0.58164,-0.49787 -2.02468,-1.40457 -3.20674,-2.0149 -1.18206,-0.61032 -2.75684,-1.50869 -3.49951,-1.99637 -32.09531,-18.73581 -34.16187,-20.1978 -53.51193,-30.78461 -0.14453,0 -0.59935,-0.28203 -1.0107,-0.62673 -0.41134,-0.3447 -1.58134,-1.05946 -2.59998,-1.58836 -1.01865,-0.52889 -2.62599,-1.43236 -3.57188,-2.0077 -0.94588,-0.57534 -2.19604,-1.30382 -2.77812,-1.61884 -1.29143,-0.69892 -3.77482,-2.16109 -5.55625,-3.27141 -0.72761,-0.4535 -1.68011,-0.97789 -2.11667,-1.16532 -0.43656,-0.18743 -1.21047,-0.61231 -1.71979,-0.94418 -0.50933,-0.33188 -1.64042,-1.05726 -2.51354,-1.61197 -2.21633,-1.40807 -4.23434,-3.47995 -4.63732,-4.76112 -0.22415,-0.71263 -0.37192,-3.71826 -0.45314,-9.21655 l -0.12052,-8.15905 0.55497,0.29701 c 0.30523,0.16335 0.55496,0.45755 0.55496,0.65378 0,0.43378 1.634,1.87476 3.25224,2.86806 1.34346,0.82464 10.66502,6.18146 12.88735,7.40597 0.80036,0.441 1.6338,0.93397 1.85208,1.09547 0.21828,0.16151 0.635,0.42351 0.92604,0.58223 1.44804,0.7897 8.84894,5.0282 9.65729,5.53074 19.93552,9.54436 34.08711,19.1578 51.76291,29.59528 0.74789,0.37414 1.55887,0.87934 1.80219,1.12266 0.41841,0.41841 3.93158,2.61645 5.50006,3.44115 0.86617,0.45543 6.46352,2.09228 9.06505,2.65092 1.96501,0.42196 7.22157,0.81919 13.75834,1.0397 2.18281,0.0736 5.27844,0.31427 6.87916,0.53476 1.60073,0.22048 3.71608,0.51189 4.70077,0.64757 3.14015,0.43268 7.91993,1.5905 10.51278,2.54653 3.05733,1.12729 5.37565,2.25143 5.37924,2.60836 0.002,0.14552 -0.88085,0.75912 -1.96069,1.36357 -3.13346,1.75396 -2.88939,1.1212 -2.88939,7.49066 0,5.21331 -0.0308,5.56341 -0.51177,5.82083 -0.61524,0.32927 -0.79708,0.32001 -2.66323,-0.13564 z m 61.95477,-49.13369 c -0.70462,-0.56453 -1.07798,-1.07931 -1.08694,-1.49866 -0.0148,-0.69172 2.36186,-5.14375 2.6122,-4.8933 0.30835,0.30848 0.16487,7.25162 -0.14985,7.25174 -0.16617,6e-5 -0.7851,-0.38684 -1.37541,-0.85978 z M -343.55199,95.247254 c 0.0883,-0.230182 0.1606,-2.161675 0.1606,-4.292203 0,-3.688607 0.0209,-3.842435 0.43686,-3.219508 1.0739,1.608129 2.7801,3.034487 5.25168,4.390321 0.97587,0.535331 0.56726,0.981107 -1.5875,1.731891 -1.16416,0.405633 -2.54959,0.978376 -3.07873,1.272765 -1.15886,0.644734 -1.39444,0.667983 -1.18291,0.116734 z m 123.42225,-10.773241 c -1.11021,-0.611253 -2.18177,-1.235358 -2.38125,-1.386898 -0.19948,-0.15154 -0.69933,-0.444484 -1.11078,-0.650986 -0.9958,-0.499779 -1.33725,-1.168574 -0.9582,-1.876827 0.19581,-0.36589 0.30118,-2.842085 0.3099,-7.282685 0.007,-3.700566 0.10198,-6.78316 0.21046,-6.850209 0.1663,-0.102774 2.42386,6.353922 4.95034,14.158111 0.35333,1.091407 0.87015,2.563104 1.14849,3.270438 0.46892,1.191631 0.47978,1.775616 0.0324,1.743536 -0.10055,-0.0072 -1.09117,-0.513226 -2.20138,-1.12448 z M -333.99868,73.21789 c 0,-1.743565 0.0716,-3.242289 0.15913,-3.330496 0.0875,-0.08821 0.48404,0.308467 0.88115,0.881497 0.75507,1.089564 1.49337,1.647499 4.4448,3.358962 0.97951,0.567989 1.74393,1.151771 1.69871,1.297291 -0.0452,0.145521 -1.32289,0.339606 -2.83926,0.431303 -1.51637,0.09169 -3.11422,0.248806 -3.55078,0.349139 l -0.79375,0.182422 z"
           style="fill:#ecc79a;stroke-width:0.26458335" />
        <path
           inkscape:connector-curvature="0"
           id="path931"
           d="m -339.96562,92.592899 53.6726,28.537191"
           style="fill:#ecc79a;fill-opacity:1;stroke:#ecc79a;stroke-width:2.5;stroke-linecap:round;stroke-linejoin:miter;stroke-miterlimit:4;stroke-dasharray:none;stroke-opacity:1" />
        <path
           inkscape:connector-curvature="0"
           id="path931-9"
           d="m -329.22054,75.083337 60.53204,32.184283"
           style="display:inline;fill:#ecc79a;fill-opacity:1;stroke:#ecc79a;stroke-width:2.5;stroke-linecap:round;stroke-linejoin:miter;stroke-miterlimit:4;stroke-dasharray:none;stroke-opacity:1" />
        <path
           inkscape:connector-curvature="0"
           id="path931-8"
           d="m -307.29795,59.775274 60.53069,32.183566"
           style="display:inline;fill:#ecc79a;fill-opacity:1;stroke:#ecc79a;stroke-width:2.5;stroke-linecap:round;stroke-linejoin:miter;stroke-miterlimit:4;stroke-dasharray:none;stroke-opacity:1" />
      </g>
      <g
         transform="matrix(0.3437897,0,0,0.39896327,6.8691636,19.733613)"
         id="g966">
        <path
           inkscape:connector-curvature="0"
           id="path980"
           d="m -162.18592,467.70269 c 0.14209,-0.13321 44.51543,-22.2715 44.51543,-22.20919 0,0.0761 -44.32823,22.26371 -44.48035,22.26371 -0.0513,0 -0.0671,-0.0245 -0.0351,-0.0545 z m -384.41986,-22.13376 c -0.11293,-0.0714 -0.16899,-0.1662 -0.12458,-0.21062 0.0444,-0.0444 0.16021,0.015 0.25732,0.13199 0.20137,0.24264 0.16276,0.2655 -0.13274,0.0786 z m -0.28321,-6.00747 v -5.58326 l -28.89373,-14.447 -28.89373,-14.44701 v -17.71876 c 0,-11.00845 0.0501,-17.74972 0.13226,-17.80051 0.0727,-0.045 15.52456,7.61445 34.33737,17.02092 18.8128,9.40646 34.33646,17.10266 34.497,17.10266 0.16055,0 -2.24197,1.26266 -5.33894,2.8059 -3.09697,1.54325 -5.68297,2.87801 -5.74667,2.96615 -0.0637,0.0881 -0.0805,8.15312 -0.0372,17.9222 0.0432,9.76909 0.0482,17.76197 0.0111,17.76197 -0.0371,0 -0.0675,-2.51247 -0.0675,-5.58326 z M -90.940293,414.10904 V 396.08121 L -198.14023,342.45407 c -58.95997,-29.49493 -107.15282,-53.63061 -107.09521,-53.63486 0.19011,-0.014 214.2929,107.08198 214.397699,107.24351 0.0564,0.0869 0.102552,8.16666 0.102552,17.95494 0,9.78827 -0.04615,17.86939 -0.102552,17.95804 -0.05641,0.0886 -0.102552,-7.95136 -0.102552,-17.86666 z m -444.351657,-10.4751 c 0.1421,-0.13332 158.1362,-79.08171 158.1362,-79.0194 0,0.0761 -157.94914,79.07396 -158.10125,79.07396 -0.0512,0 -0.0669,-0.0245 -0.035,-0.0546 z m 216.20283,-108.12245 c 7.33161,-3.67654 13.39301,-6.68462 13.46978,-6.68462 0.0768,0 -5.859,3.00808 -13.19061,6.68462 -7.33161,3.67653 -13.39302,6.68461 -13.46979,6.68461 -0.0768,0 5.85901,-3.00808 13.19062,-6.68461 z"
           style="fill:#e2e2e2;stroke-width:0.13958324" />
        <path
           inkscape:connector-curvature="0"
           id="path978"
           d="m -332.23612,552.52847 c 0.10077,-0.0403 0.22116,-0.0354 0.26754,0.011 0.0464,0.0464 -0.0361,0.0794 -0.1832,0.0733 -0.16262,-0.007 -0.19568,-0.0398 -0.0843,-0.0843 z m -107.34824,-53.51238 c -58.78723,-29.39896 -106.88588,-53.48407 -106.88588,-53.52245 0,-0.0623 213.82739,106.8027 213.9695,106.93603 0.032,0.03 0,0.0511 -0.0698,0.0468 -0.0704,-0.004 -48.2266,-24.06144 -107.01383,-53.4604 z m -107.10137,-59.31511 c 0,-3.10922 0.0184,-4.38117 0.0409,-2.82656 0.0225,1.5546 0.0225,4.09851 0,5.65312 -0.0225,1.55461 -0.0409,0.28265 -0.0409,-2.82656 z m -0.16737,-17.93645 c -0.0174,-6.67906 0.0145,-12.21476 0.0709,-12.30156 0.10509,-0.16174 10.69434,-5.50101 10.88464,-5.48821 0.058,0.004 -2.34428,1.24444 -5.33835,2.75677 l -5.44374,2.74967 -0.0709,12.21354 -0.071,12.21353 z m 11.27036,-17.93645 c 0.11515,-0.0744 0.27218,-0.13531 0.34895,-0.13531 0.0768,0 0.0454,0.0609 -0.0698,0.13531 -0.11515,0.0744 -0.27218,0.13531 -0.34896,0.13531 -0.0768,0 -0.0454,-0.0609 0.0698,-0.13531 z m 158.2874,-79.07388 c 0,-0.0914 44.96253,-22.57253 45.02343,-22.51162 0.0257,0.0257 -10.09406,5.11699 -22.48835,11.31399 -12.3943,6.19701 -22.53508,11.23594 -22.53508,11.19763 z"
           style="fill:#d0d0d0;stroke-width:0.13958324" />
        <path
           inkscape:connector-curvature="0"
           id="path976"
           d="m -247.34333,510.05093 c 46.63826,-23.3298 84.85964,-42.41781 84.93641,-42.41781 0.0768,0 -38.01899,19.08801 -84.65724,42.41781 -46.63826,23.3298 -84.85964,42.41781 -84.93641,42.41781 -0.0768,0 38.01899,-19.08801 84.65724,-42.41781 z m 129.53326,-64.69654 c 0,-0.0384 6.03,-3.08493 13.39999,-6.77008 7.369999,-3.68515 13.399995,-6.66888 13.399995,-6.6305 0,0.0384 -6.029996,3.08493 -13.399995,6.77008 -7.36999,3.68515 -13.39999,6.66889 -13.39999,6.6305 z m -428.87106,-23.52007 0.002,-12.35312 5.44375,-2.74967 c 2.99406,-1.51233 5.50656,-2.74946 5.58333,-2.74918 0.0768,0 -2.34151,1.24564 -5.37396,2.76748 l -5.51354,2.76694 -0.0713,12.33533 -0.0713,12.33534 0.002,-12.35312 z m 455.738715,-7.81666 c 0,-9.7115 0.01665,-13.68439 0.037,-8.82864 0.02034,4.85575 0.02034,12.80153 0,17.65728 -0.02035,4.85575 -0.037,0.88286 -0.037,-8.82864 z M -305.58444,288.99821 c 0.096,-0.0387 0.253,-0.0387 0.34896,0 0.096,0.0387 0.0174,0.0704 -0.17448,0.0704 -0.19193,0 -0.27044,-0.0317 -0.17448,-0.0704 z"
           style="fill:#b1b1b1;stroke-width:0.13958324" />
        <path
           inkscape:connector-curvature="0"
           id="path974"
           d="m -439.34009,498.92991 c -58.8832,-29.44635 -107.1065,-53.60997 -107.16291,-53.6969 -0.0564,-0.087 -0.10351,-8.15095 -0.10468,-17.92003 l -0.002,-17.76196 120.46032,-60.23018 c 66.25316,-33.1266 120.58597,-60.23018 120.73954,-60.23018 0.15358,0 48.45638,24.08858 107.33956,53.53019 l 107.060315,53.5302 v 17.85839 c 0,9.82212 -0.04711,17.88752 -0.104687,17.9231 -0.05758,0.0356 -0.09376,-7.98498 -0.0804,-17.82351 l 0.02429,-17.88823 -106.975438,-53.46039 c -58.83649,-29.40321 -107.08739,-53.4769 -107.22422,-53.49709 -0.13684,-0.0202 -54.42455,27.05938 -120.63935,60.17683 l -120.39056,60.21354 v 17.7804 17.78042 l 107.19994,53.62715 c 58.95997,29.49493 107.13713,53.62712 107.06036,53.62711 -0.0768,-10e-6 -48.31675,-24.0925 -107.19994,-53.53886 z m 276.87501,-31.36681 c 0.14208,-0.13321 44.79459,-22.41108 44.79459,-22.34875 0,0.0761 -44.6074,22.40327 -44.75952,22.40327 -0.0513,0 -0.067,-0.0245 -0.0351,-0.0545 z"
           style="fill:#8f8f8f;stroke-width:0.13958324" />
        <path
           inkscape:connector-curvature="0"
           id="path972"
           d="m -439.34009,498.77186 -107.06036,-53.55735 v -17.78042 -17.7804 l 120.39056,-60.21354 c 66.2148,-33.11745 120.50251,-60.19702 120.63935,-60.17683 0.3221,0.0475 214.19424,106.92808 214.209398,107.0491 0.0063,0.0504 -0.104533,0.0613 -0.246336,0.0242 -0.160256,-0.0419 -45.808722,22.70805 -120.634602,60.121 l -120.37681,60.18844 -71.25746,-35.62911 c -39.19161,-19.59601 -87.32176,-43.66076 -106.95589,-53.47725 l -35.69841,-17.84816 v 17.72657 17.72657 l 107.09518,53.54762 107.09518,53.54762 84.76202,-42.38093 c 46.61912,-23.30952 84.80913,-42.37746 84.86669,-42.3732 0.1479,0.0109 -169.45873,84.84337 -169.62857,84.8434 -0.0768,10e-6 -48.31675,-24.10078 -107.19994,-53.55733 z m 321.39044,-53.55705 c 0,-0.0384 6.02999,-3.08493 13.39999,-6.77008 7.369996,-3.68515 13.399992,-6.66889 13.399992,-6.6305 0,0.0384 -6.029996,3.08493 -13.399992,6.77008 -7.37,3.68515 -13.39999,6.66888 -13.39999,6.6305 z"
           style="fill:#636363;stroke-width:0.13958324" />
        <path
           inkscape:connector-curvature="0"
           id="path970"
           d="m -439.3052,498.66714 -107.02545,-53.52246 v -17.7271 -17.72711 l 35.48904,17.74425 c 19.51897,9.75934 67.64892,33.82441 106.95544,53.47793 l 71.4664,35.73369 120.40316,-60.20145 c 78.4626,-39.23122 120.48394,-60.17045 120.635053,-60.11247 0.214441,0.0823 0.231889,1.41745 0.231889,17.74241 0,9.70939 -0.04711,17.68255 -0.104687,17.71813 -0.05758,0.0356 -0.08851,-7.90647 -0.06873,-17.64903 0.01978,-9.74257 -0.01158,-17.71028 -0.06979,-17.70604 -0.05816,0.004 -54.250095,27.09213 -120.426515,60.19527 l -120.32076,60.18756 -0.0354,17.57892 c -0.0282,13.97094 0,17.60172 0.13958,17.69004 0.13114,0.0833 0.12253,0.10971 -0.0344,0.10551 -0.11516,-0.003 -48.37083,-24.09072 -107.23484,-53.52805 z m 276.70053,-31.24362 c 0.14209,-0.13322 44.7946,-22.41108 44.7946,-22.34876 0,0.0761 -44.6074,22.40328 -44.75952,22.40328 -0.0513,0 -0.067,-0.0245 -0.0351,-0.0545 z"
           style="fill:#595959;stroke-width:0.13958324" />
        <path
           inkscape:connector-curvature="0"
           id="path968"
           d="m -332.17558,534.4431 0.0354,-17.62238 120.32076,-60.18756 c 66.17642,-33.10314 120.367873,-60.19101 120.425451,-60.19527 0.05758,-0.004 0.104688,7.93804 0.104688,17.64955 v 17.65726 l -120.320739,60.1604 c -66.17639,33.0882 -120.3838,60.16039 -120.46087,60.16039 -0.0933,0 -0.12831,-5.89596 -0.10472,-17.62239 z"
           style="fill:#474747;stroke-width:0.13958324" />
      </g>
      <path
         sodipodi:nodetypes="ccccc"
         inkscape:connector-curvature="0"
         id="rect982"
         d="m -120.296,122.75321 19.28186,13.80468 -76.14456,44.21084 -24.16195,-13.83818 z"
         style="fill:#ffffff;fill-opacity:1;stroke:#ffffff;stroke-width:2.22606874;stroke-linecap:round;stroke-miterlimit:4;stroke-dasharray:none;stroke-opacity:0" />
    </g>
  </g>
  <g
     inkscape:label="Capa 1"
     inkscape:groupmode="layer"
     id="layer1"
     transform="translate(84.157126,-50.953344)"
     style="display:inline">
    <g
       id="g826"
       transform="matrix(0.71643993,0,0,0.79181033,-30.107501,24.288002)">
      <path
         style="fill:#bde8f4;fill-opacity:1;stroke-width:0.26458332"
         d="m 113.69523,230.55178 c 0.21828,-0.14107 0.51594,-0.25648 0.66146,-0.25648 0.14552,0 0.086,0.11541 -0.13229,0.25648 -0.21828,0.14106 -0.51594,0.25648 -0.66146,0.25648 -0.14552,0 -0.086,-0.11542 0.13229,-0.25648 z M 81.416067,169.96015 c -4.513948,-0.61858 -7.175191,-1.17715 -9.555052,-2.00553 -2.796897,-0.97353 -4.277577,-1.0972 -7.775157,-0.64936 -5.014526,0.64208 -9.082725,0.82757 -11.927139,0.54383 -5.811366,-0.57971 -12.275192,-2.22912 -16.250986,-4.14686 -8.329244,-4.01765 -13.272084,-10.2445 -12.882975,-16.22962 0.499203,-7.67851 7.922488,-13.84311 20.026725,-16.631 2.153592,-0.49602 4.534766,-0.87709 7.672917,-1.22793 1.719374,-0.19222 1.933779,-0.33639 3.394588,-2.28262 3.483563,-4.64114 11.44034,-7.17107 20.912228,-6.64923 2.436614,0.13425 2.821112,0.22393 3.439583,0.80225 3.743923,3.50087 7.589253,5.26836 12.844235,5.90383 3.094522,0.37421 7.587332,0.003 10.606246,-0.87623 3.56242,-1.03757 7.60207,-0.5587 8.86849,1.05128 0.65638,0.83446 0.65629,1.73368 -2.6e-4,3.18033 -0.61972,1.36536 -0.52135,1.69442 0.67743,2.26607 2.67695,1.27656 5.59391,-0.0683 6.22043,-2.86785 0.73726,-3.29441 -1.56532,-5.925 -6.34573,-7.24971 -1.07527,-0.29798 -2.02228,-0.60901 -2.10445,-0.69118 -0.0822,-0.0822 0.0603,-0.47201 0.3167,-0.8663 0.92628,-1.42471 1.25755,-2.42186 0.97806,-2.94408 -0.53284,-0.99563 -3.53461,-1.43002 -5.09602,-0.73746 -0.39531,0.17534 -1.17315,0.97364 -1.72853,1.774 -1.33177,1.91923 -3.38407,3.30018 -5.887108,3.96132 -2.482583,0.65574 -3.505539,0.6568 -6.445962,0.007 -2.909816,-0.64332 -4.928627,-1.6239 -6.576441,-3.1943 -1.163082,-1.10845 -1.255885,-1.28713 -1.099347,-2.11667 0.744533,-3.9455 4.051838,-8.49489 8.406649,-11.56385 2.452399,-1.72832 7.927339,-4.55572 8.821559,-4.55572 0.56285,0 0.60578,0.0845 0.45396,0.89374 -0.15067,0.80315 -0.0561,0.99697 0.9331,1.9122 0.60542,0.56016 1.41961,1.23574 1.80932,1.50129 2.39957,1.6351 8.0446,3.73605 11.1935,4.16596 4.48153,0.61184 5.22131,1.02878 6.34909,3.57829 0.51691,1.16858 0.53288,1.37819 0.209,2.74283 -0.2733,1.15154 -0.63737,1.78228 -1.64997,2.85853 -1.5923,1.69239 -1.57147,2.42327 0.088,3.08726 2.1304,0.85242 3.82611,0.4925 5.68535,-1.20674 1.92482,-1.75918 2.62904,-3.27197 2.62676,-5.64273 -0.001,-1.42906 -0.14793,-2.1429 -0.64166,-3.12532 -0.69686,-1.3866 -0.54341,-1.75681 0.73174,-1.76542 2.36094,-0.016 8.27363,-1.8895 10.958,-3.47226 2.80439,-1.65353 3.61366,-2.52294 3.24432,-3.48542 -0.22279,-0.58058 -2.034,-1.24956 -3.36437,-1.24265 -1.13748,0.006 -3.15241,0.75409 -3.48646,1.29459 -0.33789,0.54672 -2.658,1.55661 -5.31734,2.31452 -2.47647,0.70579 -2.93486,0.75071 -7.66116,0.75071 -4.70669,0 -5.20405,-0.0482 -7.80373,-0.75644 -3.3691,-0.91784 -5.35637,-1.88814 -7.17475,-3.50312 -0.75542,-0.67092 -1.71807,-1.33997 -2.13922,-1.48678 -0.42114,-0.14682 -0.72102,-0.40104 -0.66638,-0.56495 0.12203,-0.3661 2.13173,-1.056147 4.39269,-1.508265 0.96329,-0.192627 1.98365,-0.590629 2.37317,-0.925682 0.65551,-0.56384 0.68367,-0.70476 0.69196,-3.46189 0.008,-2.821064 0.0275,-2.909369 1.02815,-4.783058 1.64608,-3.082107 4.55243,-6.09328 8.32268,-8.622844 3.1781,-2.132275 8.95176,-4.816433 12.35251,-5.742647 0.43657,-0.118901 1.50813,-0.413128 2.38125,-0.653838 3.79526,-1.046308 7.84679,-1.547198 12.7,-1.570098 5.25216,-0.02479 7.02657,0.281638 9.90722,1.71088 4.29158,2.129277 5.71266,5.637755 4.11621,10.162479 -0.59449,1.684935 -0.61557,1.893903 -0.24764,2.455437 0.22119,0.337571 1.26025,1.027313 2.30902,1.532762 2.84499,1.371116 4.72797,2.51061 6.15904,3.72717 l 1.28263,1.090372 0.10698,2.663618 0.10699,2.663621 -1.37856,1.273093 c -2.05442,1.89724 -1.97202,1.88788 -3.54243,0.40264 -0.76321,-0.72181 -1.7677,-1.50891 -2.2322,-1.749112 -0.4645,-0.240202 -0.84455,-0.547092 -0.84455,-0.681977 0,-0.373311 -5.05862,-2.698747 -8.22937,-3.783023 -0.30093,-0.102907 -0.46548,-0.60057 -0.56633,-1.712862 -0.16731,-1.845106 -0.65194,-2.881529 -1.95815,-4.18774 -2.22602,-2.226022 -5.77325,-3.828196 -10.22765,-4.619509 -3.05842,-0.543322 -5.04686,0.148426 -4.89534,1.703015 0.0983,1.008874 1.02704,1.511964 3.94371,2.136357 2.07772,0.444796 4.13527,1.370218 5.23234,2.353344 0.8073,0.723461 1.47983,2.264799 1.13755,2.607082 -0.13949,0.139486 -2.14193,0.287496 -4.44987,0.328914 -6.56883,0.117875 -11.79956,0.985459 -13.11415,2.17515 -0.72719,0.658099 -0.60638,1.786382 0.25278,2.360743 0.89895,0.600956 2.31304,0.604538 5.49011,0.01392 5.05298,-0.939369 12.03825,-0.835147 16.17092,0.241278 2.05404,0.535009 6.82135,2.79264 9.17771,4.34624 1.43869,0.94857 2.46802,1.92536 3.82078,3.62579 2.74132,3.44585 3.39448,4.91072 3.74573,8.40078 0.40284,4.00258 0.35693,5.39546 -0.21965,6.66526 -0.60395,1.33008 -4.75969,5.99266 -6.08015,6.8217 -2.03707,1.27894 -3.94075,2.23083 -5.78648,2.89336 -3.69676,1.32698 -3.51523,1.10541 -3.90818,4.77016 -0.46632,4.34911 -3.71792,7.84035 -9.38006,10.07136 -3.63215,1.43115 -4.31136,1.97377 -5.95564,4.75805 -3.57149,6.04762 -10.90797,10.2061 -21.56102,12.22124 -2.88656,0.54602 -4.63793,0.69832 -9.12813,0.79376 -3.05594,0.065 -5.91977,0.17397 -6.36408,0.24225 -0.4532,0.0696 -1.48789,0.69917 -2.35699,1.43402 -1.5226,1.28741 -4.538123,2.95537 -6.272509,3.46947 -3.415657,1.01247 -9.094041,1.48679 -12.390794,1.03501 z m -7.992174,-6.83048 c 0.870596,-0.44312 1.328283,-1.33635 0.97644,-1.90564 -0.102511,-0.16587 -0.83929,-0.71924 -1.637287,-1.22971 -2.838558,-1.8158 -4.046979,-3.42027 -4.046979,-5.37332 0,-2.18926 1.339818,-4.01184 4.497916,-6.11862 2.576486,-1.71878 2.887681,-2.31384 1.76275,-3.37066 -0.438973,-0.41239 -1.302957,-0.69822 -2.976563,-0.98473 -4.967705,-0.85041 -9.198012,-2.62194 -10.51484,-4.40331 -1.632416,-2.20828 0.560305,-6.22727 4.097983,-7.51109 0.631608,-0.22921 2.310873,-0.51275 3.731699,-0.6301 3.107425,-0.25665 3.971023,-0.68599 3.848375,-1.91323 -0.05286,-0.52895 -0.345697,-1.01345 -0.829709,-1.37278 -0.659083,-0.4893 -1.085059,-0.55117 -3.582935,-0.52034 -6.069195,0.0749 -11.271478,2.59234 -13.543725,6.55396 -0.861644,1.50226 -1.027887,3.36504 -0.467296,5.23612 0.686401,2.291 3.813699,4.80146 7.83948,6.2932 1.265224,0.46883 2.586746,0.96541 2.936716,1.10352 l 0.636307,0.2511 -0.916932,0.97918 c -2.987387,3.1902 -3.774287,5.80906 -2.672099,8.89294 0.834404,2.33463 5.074897,5.97959 7.544065,6.48459 1.141188,0.2334 2.256951,0.0783 3.316634,-0.46108 z m 30.790717,-0.58371 c 0.54376,-0.15103 1.32827,-0.6771 1.78431,-1.1965 2.12792,-2.42356 2.57451,-5.17714 1.27076,-7.83521 -1.23084,-2.50943 -4.66541,-5.39065 -8.92028,-7.48312 -1.091406,-0.53673 -2.282031,-1.13282 -2.645833,-1.32464 -0.363802,-0.19182 -2.14974,-0.85116 -3.96875,-1.4652 -5.828321,-1.96748 -7.153193,-2.1889 -8.851461,-1.47932 -1.009335,0.42173 -1.820138,1.4686 -1.593951,2.05803 0.198226,0.51657 1.566932,1.15112 3.618783,1.67771 5.243388,1.34566 11.639339,4.32429 14.024647,6.53135 2.858435,2.64483 3.252165,4.44816 1.533235,7.02229 -0.582087,0.87167 -1.058337,1.69792 -1.058337,1.83611 0,0.47011 1.285367,1.46088 2.165527,1.6692 1.2432,0.29425 1.54786,0.29302 2.64135,-0.0107 z m 15.69833,-3.98991 c 1.62249,-0.44566 5.15191,-2.19948 6.49809,-3.22899 1.73538,-1.32716 3.13503,-3.47112 3.32762,-5.09717 0.13856,-1.16997 0.0751,-1.41882 -0.5521,-2.16418 -1.48598,-1.76599 -4.08287,-1.62688 -5.47378,0.2932 -0.41642,0.57485 -0.75712,1.27136 -0.75712,1.54779 0,1.09071 -1.26121,2.69062 -2.91042,3.69199 -0.3638,0.2209 -1.5415,0.73568 -2.61712,1.14396 -3.25113,1.23407 -3.78141,2.36266 -1.64074,3.49191 1.27667,0.67347 2.49771,0.76862 4.12557,0.32149 z m -82.814582,-1.96003 c 1.714143,-0.44648 3.744746,-1.41659 5.052058,-2.4136 1.000574,-0.76308 1.323705,-0.76915 3.967599,-0.0746 2.846877,0.74788 8.548666,0.83945 9.831906,0.15791 1.197036,-0.63577 1.198967,-1.75314 0.0045,-2.60368 -0.733531,-0.52231 -1.308341,-0.63406 -4.034896,-0.78441 -1.748729,-0.0964 -3.543649,-0.29184 -3.988713,-0.43425 -2.392921,-0.76569 -4.735957,-2.57938 -5.4669,-4.2318 -0.49198,-1.1122 -0.495784,-1.22996 -0.08074,-2.4989 0.520261,-1.5906 0.43447,-1.8946 -0.700283,-2.4814 -1.282155,-0.66303 -3.336412,-0.61548 -4.500848,0.10418 -0.936887,0.57903 -1.803482,2.11235 -1.803482,3.19101 0,1.00258 1.001106,3.45919 1.842688,4.52177 0.812847,1.0263 0.848632,1.15232 0.508061,1.78913 -0.201504,0.37678 -0.896475,1.01506 -1.544373,1.41841 -1.05519,0.6569 -1.942788,0.894 -5.367224,1.43372 -1.928588,0.30397 -2.009032,2.07614 -0.137673,3.03296 0.951068,0.48628 1.415274,0.55353 2.978729,0.43154 1.018646,-0.0795 2.566458,-0.33057 3.439583,-0.55799 z m 82.030002,-12.44099 c 2.28171,-0.4713 4.50502,-1.46092 6.49654,-2.89169 l 1.40277,-1.00779 2.52805,0.63197 c 2.77172,0.69288 5.91175,0.79319 7.89968,0.25236 1.28528,-0.34967 5.302,-3.31566 5.83239,-4.30669 0.1874,-0.35016 0.303,-1.16224 0.25689,-1.80462 -0.082,-1.14185 -0.1087,-1.17286 -1.19602,-1.38657 -1.38487,-0.27218 -1.95992,0.007 -4.43029,2.15173 -2.70571,2.34892 -4.48405,2.4526 -8.61272,0.50212 -3.5563,-1.68007 -5.5854,-1.4451 -7.26364,0.84112 -1.02937,1.40228 -2.81988,2.49259 -5.04523,3.07221 -1.73962,0.45312 -5.86675,0.50397 -7.85259,0.0968 -2.91299,-0.59734 -6.1414,-2.18312 -7.48687,-3.67753 -1.28683,-1.42928 -3.428147,-1.73903 -5.187245,-0.75036 -1.754743,0.98622 -1.650659,1.7755 0.481661,3.65244 2.139873,1.88359 6.506624,3.69606 11.114354,4.61315 2.54913,0.50735 8.63083,0.51361 11.06227,0.0114 z m 25.72512,-15.64582 c 0.48583,-0.36273 0.72405,-0.78265 0.72405,-1.27634 0,-0.62248 -0.26481,-0.89594 -1.7198,-1.77602 -2.28955,-1.3849 -3.65957,-2.74517 -3.86438,-3.83693 -0.44849,-2.39067 1.72197,-4.07802 7.19475,-5.59332 1.46658,-0.40606 2.13796,-1.16101 1.76346,-1.98295 -0.74334,-1.63147 -3.70716,-1.92408 -7.25746,-0.71653 -5.85719,1.99218 -8.73832,4.82552 -8.33863,8.20031 0.29425,2.48444 2.27182,4.64208 6.36595,6.94561 1.15229,0.64832 1.58936,0.74997 2.8831,0.67046 1.00804,-0.0619 1.77032,-0.27694 2.24896,-0.63429 z m 33.95014,-25.90552 c 0.0127,-0.30822 0.0754,-0.37092 0.15985,-0.15985 0.0764,0.19099 0.067,0.4192 -0.0209,0.50712 -0.0879,0.0879 -0.15046,-0.0683 -0.13897,-0.34727 z m -0.22733,-3.9467 c 0.011,-1.04848 -0.26403,-2.298285 -1.02627,-4.663964 -0.48968,-1.519751 -2.91483,-4.063214 -5.43865,-5.703969 -0.97712,-0.63523 -1.88472,-1.348211 -2.0169,-1.584399 -0.13218,-0.236188 -0.18068,-1.172424 -0.10779,-2.080525 0.38565,-4.804298 -4.33729,-12.473651 -8.62215,-14.001122 -0.67921,-0.242126 -1.46406,-0.56619 -1.74413,-0.720146 -0.28006,-0.153955 -1.35162,-0.377859 -2.38125,-0.497564 l -1.87204,-0.217647 1.91436,0.08084 c 1.0529,0.04446 2.06493,0.195074 2.24896,0.334698 0.18403,0.139626 0.86875,0.406982 1.52161,0.594129 1.73603,0.497639 4.43837,2.853966 6.25841,5.457058 0.86458,1.236551 2.21187,4.010242 2.21187,4.553611 0,0.266089 0.1473,0.631095 0.32733,0.811125 0.20992,0.209921 0.34102,1.26369 0.36552,2.937868 0.021,1.435798 0.11183,2.729698 0.20184,2.875335 0.09,0.14564 0.78873,0.62371 1.55271,1.062379 0.76398,0.438671 2.32215,1.701096 3.46261,2.80539 l 2.07355,2.007806 0.77004,2.675631 c 0.599,2.08131 0.71665,2.859569 0.52966,3.503718 l -0.24038,0.828085 0.0111,-1.058333 z M 129.04162,73.69703 c 5.3e-4,-0.145061 2.11288,-0.863542 6.34945,-2.159585 2.01328,-0.615902 3.74835,-1.063897 5.15937,-1.332158 2.94523,-0.559941 2.94547,-0.559967 2.51354,-0.267677 -0.21828,0.147715 -0.66305,0.270394 -0.98839,0.272622 -0.67629,0.0046 -2.45221,0.388596 -4.56786,0.987602 -0.80036,0.226608 -1.87192,0.529796 -2.38125,0.673756 -1.15837,0.327411 -3.13794,0.964189 -3.83646,1.234091 -1.30601,0.504637 -2.24891,0.752626 -2.2484,0.591349 z m 15.21299,-4.289645 c 0.43656,-0.137601 3.11547,-0.301474 5.95312,-0.364164 l 5.15938,-0.11398 -4.63021,0.221581 c -2.54661,0.121867 -5.22552,0.285742 -5.95313,0.364164 -1.08165,0.116581 -1.17816,0.09696 -0.52916,-0.107601 z"
         id="path842"
         inkscape:connector-curvature="0" />
      <path
         style="fill:#00abfc;stroke-width:0.26458332"
         d="m 79.696275,173.64496 c -2.970125,-0.35128 -5.41274,-0.79702 -7.540625,-1.37604 -1.826832,-0.4971 -2.793095,-0.5422 -12.170833,-0.56819 -8.621155,-0.0239 -10.532044,-0.0998 -12.435417,-0.49418 -1.236927,-0.25628 -2.963333,-0.59674 -3.836458,-0.75658 -1.742509,-0.319 -2.968945,-0.65749 -6.746875,-1.86213 -2.702709,-0.8618 -2.883789,-0.93429 -6.482292,-2.59493 -6.426044,-2.9655 -11.967533,-8.03642 -13.51185,-12.36447 -0.203631,-0.57069 -0.360511,-2.12923 -0.367162,-3.6476 -0.02476,-5.65302 2.187064,-10.12667 6.996345,-14.15086 1.838333,-1.53823 6.343594,-4.49695 6.847541,-4.49695 0.09525,0 0.677902,-0.22965 1.294781,-0.51033 2.946199,-1.34054 4.880988,-1.97701 9.721307,-3.19793 0.509739,-0.12857 2.057551,-0.36852 3.439584,-0.5332 1.382032,-0.16469 2.756664,-0.45537 3.054733,-0.64595 0.298072,-0.19059 1.310103,-1.11377 2.248959,-2.05152 2.521754,-2.51877 5.247621,-4.07887 8.983054,-5.14128 0.800364,-0.22764 2.050521,-0.58184 2.778125,-0.78711 2.038125,-0.57502 5.625417,-0.94755 10.838547,-1.12557 4.737415,-0.16178 4.7542,-0.16451 5.076426,-0.82378 0.17781,-0.3638 0.748194,-1.59785 1.267515,-2.74233 1.333731,-2.93928 4.165471,-6.34087 6.857834,-8.23787 0.413067,-0.29105 1.152191,-0.82683 1.642499,-1.19063 2.427859,-1.80144 8.680566,-5.027082 9.744696,-5.027082 0.215763,0 0.453166,-0.09849 0.527561,-0.218866 0.0744,-0.120375 0.885095,-0.429217 1.801553,-0.686313 0.916457,-0.257096 1.868517,-0.572508 2.115687,-0.700913 0.24717,-0.128408 1.28076,-0.422555 2.29687,-0.653664 1.0161,-0.231105 1.95524,-0.561348 2.08698,-0.733864 0.13174,-0.172519 0.3876,-1.325702 0.56859,-2.56263 0.74258,-5.075081 4.11604,-9.453361 10.50473,-13.63365 2.3206,-1.518423 6.34164,-3.634407 9.09655,-4.78685 0.94589,-0.395684 1.87375,-0.907552 2.06191,-1.137483 0.18817,-0.229934 0.42629,-0.427765 0.52917,-0.439629 0.43521,-0.05019 1.81442,-0.433308 2.30371,-0.639921 0.61392,-0.259236 2.5012,-0.875665 3.83646,-1.253075 0.50933,-0.14396 1.58089,-0.450331 2.38125,-0.680826 0.80037,-0.230497 2.16959,-0.550934 3.04271,-0.712086 0.87313,-0.16115 1.94469,-0.41548 2.38125,-0.565179 0.43656,-0.149699 2.7282,-0.404265 5.09252,-0.565703 4.54691,-0.310467 10.54087,-0.02937 11.57672,0.542904 0.29077,0.160647 1.08439,0.490185 1.7636,0.732311 4.28486,1.527471 9.0078,9.196824 8.62215,14.001122 -0.0729,0.908101 -0.0244,1.844337 0.10779,2.080525 0.13218,0.236188 1.03978,0.949169 2.0169,1.584399 2.52382,1.640755 4.94897,4.184218 5.43865,5.703969 0.74124,2.300481 0.96868,3.399997 1.10765,5.354651 0.0764,1.075333 0.20771,2.193273 0.29169,2.484313 l 0.15269,0.52917 -0.40535,-0.52917 c -0.38364,-0.50084 -0.41528,-0.50353 -0.59094,-0.0502 -0.10208,0.26341 -0.64616,0.66321 -1.20906,0.88844 -0.98736,0.39506 -3.67022,3.01464 -3.67022,3.58365 0,0.153 0.22876,0.64942 0.50836,1.10316 1.21507,1.97186 1.90617,4.85517 2.58868,10.79999 0.32399,2.82209 -0.8861,6.37696 -3.12646,9.18456 -1.89941,2.38032 -6.66496,5.59686 -9.79431,6.61072 -1.2679,0.41078 -1.72057,0.96936 -1.95131,2.40783 -0.57272,3.57041 -3.27496,7.57242 -6.65075,9.84975 -0.74809,0.50466 -2.516,1.47985 -3.92868,2.16708 -2.98521,1.45222 -4.36341,2.63298 -6.32324,5.41736 -3.98255,5.65812 -9.94351,9.24244 -19.60875,11.79071 -3.63121,0.95739 -10.55553,1.90479 -15.46632,2.11614 l -4.08924,0.176 -1.75151,1.1644 c -1.98846,1.32193 -3.17776,1.86751 -6.510701,2.98675 -2.987196,1.00313 -3.301008,1.07193 -6.957224,1.52549 -3.273332,0.40606 -7.495407,0.44283 -10.46875,0.0912 z m 11.244792,-4.05798 c 1.091406,-0.22031 2.381014,-0.51814 2.865794,-0.66184 1.734386,-0.5141 4.749909,-2.18206 6.272509,-3.46947 0.8691,-0.73485 1.90379,-1.36437 2.35699,-1.43402 0.44431,-0.0683 3.30814,-0.17729 6.36408,-0.24225 4.4902,-0.0954 6.24157,-0.24774 9.12813,-0.79376 10.65305,-2.01514 17.98953,-6.17362 21.56102,-12.22124 1.64428,-2.78428 2.32349,-3.3269 5.95564,-4.75805 5.66214,-2.23101 8.91374,-5.72225 9.38006,-10.07137 0.39295,-3.66475 0.21142,-3.44318 3.90818,-4.77016 1.84573,-0.66253 3.74941,-1.61442 5.78648,-2.89337 1.32046,-0.82903 5.4762,-5.49161 6.08015,-6.82169 0.57658,-1.2698 0.62249,-2.66268 0.21965,-6.66526 -0.35125,-3.49006 -1.00441,-4.95493 -3.74573,-8.40078 -1.35276,-1.70043 -2.38209,-2.67722 -3.82078,-3.62579 -2.35636,-1.5536 -7.12367,-3.811235 -9.17771,-4.346243 -4.13267,-1.076426 -11.11794,-1.180648 -16.17092,-0.241279 -3.17707,0.590632 -4.59116,0.58705 -5.49011,-0.01392 -0.85916,-0.57436 -0.97997,-1.702644 -0.25278,-2.360742 1.31459,-1.189691 6.54532,-2.057276 13.11415,-2.17515 2.30794,-0.04142 4.31038,-0.189429 4.44987,-0.328914 0.34228,-0.342284 -0.33025,-1.883622 -1.13755,-2.607083 -1.09707,-0.983125 -3.15462,-1.908548 -5.23234,-2.353344 -2.91667,-0.624393 -3.84537,-1.127482 -3.94371,-2.136357 -0.15152,-1.554588 1.83692,-2.246336 4.89534,-1.703014 4.4544,0.791313 8.00163,2.393487 10.22765,4.619508 1.30621,1.306211 1.79084,2.342634 1.95815,4.18774 0.10085,1.112293 0.2654,1.609955 0.56633,1.712862 3.17075,1.084276 8.22937,3.409712 8.22937,3.783023 0,0.134885 0.38005,0.441775 0.84455,0.681977 0.4645,0.240202 1.46899,1.027306 2.2322,1.749116 1.57041,1.48524 1.48801,1.4946 3.54243,-0.40264 l 1.37856,-1.273096 -0.10699,-2.663621 -0.10698,-2.663619 -1.28263,-1.090372 c -1.43107,-1.216559 -3.31405,-2.356053 -6.15904,-3.727169 -1.04877,-0.50545 -2.08783,-1.195192 -2.30902,-1.532763 -0.36793,-0.561533 -0.34685,-0.770501 0.24764,-2.455437 1.59645,-4.524724 0.17537,-8.033202 -4.11621,-10.162478 -2.88065,-1.429242 -4.65506,-1.735664 -9.90722,-1.710881 -4.85321,0.02291 -8.90474,0.523791 -12.7,1.570099 -0.87312,0.24071 -1.94468,0.534937 -2.38125,0.653838 -3.40075,0.926213 -9.17441,3.610372 -12.35251,5.742646 -3.77025,2.529565 -6.6766,5.540737 -8.32268,8.622845 -1.00069,1.873689 -1.01967,1.961993 -1.02815,4.783058 -0.008,2.75713 -0.0365,2.89805 -0.69196,3.46189 -0.38952,0.335052 -1.40988,0.733054 -2.37317,0.925682 -2.26096,0.452117 -4.27066,1.142168 -4.39269,1.508268 -0.0546,0.16391 0.24524,0.41813 0.66638,0.56495 0.42115,0.14681 1.3838,0.81586 2.13922,1.48678 1.81838,1.61498 3.80565,2.58528 7.17475,3.50311 2.59968,0.70824 3.09704,0.75645 7.80373,0.75645 4.7263,0 5.18469,-0.0449 7.66116,-0.75071 2.65934,-0.75791 4.97945,-1.7678 5.31734,-2.31452 0.33405,-0.5405 2.34898,-1.28868 3.48646,-1.29459 1.33037,-0.007 3.14158,0.66207 3.36437,1.24265 0.36934,0.96248 -0.43993,1.83189 -3.24432,3.48542 -2.68437,1.58276 -8.59706,3.45631 -10.958,3.47225 -1.27515,0.009 -1.4286,0.37883 -0.73174,1.76543 0.49373,0.98242 0.64029,1.69626 0.64166,3.12532 0.002,2.37076 -0.70194,3.88355 -2.62676,5.64273 -1.85924,1.69924 -3.55495,2.05916 -5.68535,1.20674 -1.65948,-0.66399 -1.68031,-1.39487 -0.088,-3.08726 1.0126,-1.07625 1.37667,-1.70699 1.64997,-2.85853 0.32388,-1.36464 0.30791,-1.57426 -0.209,-2.74283 -1.12778,-2.54951 -1.86756,-2.96645 -6.34909,-3.57829 -3.1489,-0.42991 -8.79393,-2.53086 -11.1935,-4.16596 -0.38971,-0.26555 -1.2039,-0.94113 -1.80932,-1.50129 -0.98919,-0.91523 -1.08377,-1.10905 -0.9331,-1.9122 0.15182,-0.80924 0.10889,-0.89374 -0.45396,-0.89374 -0.89422,0 -6.36916,2.8274 -8.821617,4.55571 -4.354812,3.06896 -7.662117,7.61835 -8.406649,11.56385 -0.156538,0.82954 -0.06373,1.00822 1.099347,2.11667 1.647814,1.57041 3.666625,2.55098 6.576441,3.1943 2.940423,0.65009 3.963379,0.64903 6.445961,-0.007 2.503037,-0.66114 4.555347,-2.04209 5.887107,-3.96131 0.55539,-0.80037 1.33322,-1.59867 1.72853,-1.77401 1.56141,-0.69256 4.56318,-0.25817 5.09602,0.73746 0.27949,0.52222 -0.0518,1.51937 -0.97806,2.94408 -0.25635,0.3943 -0.39887,0.78414 -0.3167,0.86631 0.0822,0.0822 1.02918,0.3932 2.10445,0.69117 3.5832,0.99295 5.54908,2.52618 6.34977,4.95227 0.63243,1.91629 -0.42606,4.33308 -2.32508,5.30872 -1.30591,0.67093 -4.57726,0.056 -4.95625,-0.9316 -0.0734,-0.19131 0.0973,-0.85637 0.37943,-1.4779 0.65661,-1.44664 0.6567,-2.34587 2.6e-4,-3.18032 -1.26641,-1.60999 -5.30607,-2.08886 -8.86849,-1.05129 -3.018912,0.87927 -7.511722,1.25044 -10.606244,0.87623 -5.254982,-0.63546 -9.100312,-2.40296 -12.844235,-5.90383 -0.618472,-0.57832 -1.002969,-0.668 -3.439583,-0.80224 -9.471888,-0.52184 -17.428666,2.00808 -20.912228,6.64922 -1.460809,1.94623 -1.675215,2.09041 -3.394588,2.28262 -14.683126,1.64154 -24.047276,6.65224 -27.031985,14.46466 -2.654829,6.94897 2.239778,14.81215 12.215318,19.6239 3.975793,1.91774 10.43962,3.56715 16.250986,4.14685 2.844414,0.28374 6.912613,0.0982 11.927139,-0.54382 3.49758,-0.44784 4.97826,-0.32418 7.775157,0.64936 2.379861,0.82837 5.041104,1.38694 9.555051,2.00553 2.279571,0.31238 7.055747,0.12526 9.525,-0.37318 z m -20.833808,-5.99623 c -2.469168,-0.505 -6.709661,-4.14996 -7.544065,-6.48459 -1.102188,-3.08388 -0.315288,-5.70274 2.672099,-8.89294 l 0.916932,-0.97918 -0.636307,-0.2511 c -0.34997,-0.13811 -1.671492,-0.63469 -2.936716,-1.10352 -4.025781,-1.49174 -7.153079,-4.0022 -7.83948,-6.2932 -0.560591,-1.87108 -0.394348,-3.73386 0.467296,-5.23612 2.272247,-3.96162 7.47453,-6.47906 13.543725,-6.55396 2.497876,-0.0308 2.923852,0.031 3.582935,0.52034 0.484012,0.35933 0.776845,0.84383 0.829709,1.37278 0.122648,1.22724 -0.74095,1.65658 -3.848375,1.91323 -1.420826,0.11735 -3.100091,0.40089 -3.731699,0.6301 -3.537678,1.28382 -5.730399,5.30281 -4.097983,7.51109 1.316828,1.78137 5.547135,3.5529 10.51484,4.40331 1.673606,0.28651 2.53759,0.57234 2.976563,0.98473 1.124931,1.05682 0.813736,1.65188 -1.76275,3.37066 -3.158098,2.10678 -4.497916,3.92936 -4.497916,6.11862 0,1.95305 1.208421,3.55752 4.046979,5.37332 1.680112,1.07476 1.876317,1.32166 1.677943,2.11156 -0.268478,1.06906 -2.547999,1.85009 -4.33373,1.48487 z m 31.466001,-1.03409 c -0.88016,-0.20832 -2.165527,-1.19909 -2.165527,-1.6692 0,-0.13819 0.47625,-0.96444 1.058337,-1.83611 1.71893,-2.57413 1.3252,-4.37746 -1.533235,-7.02229 -2.385308,-2.20706 -8.781259,-5.18569 -14.024647,-6.53135 -2.051851,-0.52659 -3.420557,-1.16114 -3.618783,-1.67771 -0.226187,-0.58943 0.584616,-1.6363 1.593951,-2.05803 1.698268,-0.70958 3.02314,-0.48816 8.851461,1.47932 1.81901,0.61404 3.604948,1.27338 3.96875,1.4652 0.363802,0.19182 1.554427,0.78791 2.645833,1.32464 4.25487,2.09247 7.68944,4.97369 8.92028,7.48312 1.30375,2.65807 0.85716,5.41165 -1.27076,7.83521 -1.12049,1.27617 -2.52064,1.6581 -4.42566,1.2072 z m 14.21411,-4.3221 c -2.14067,-1.12925 -1.61039,-2.25784 1.64074,-3.49191 1.07562,-0.40828 2.25332,-0.92306 2.61712,-1.14396 1.64921,-1.00137 2.91042,-2.60128 2.91042,-3.69199 0,-0.27643 0.3407,-0.97294 0.75712,-1.54779 1.39091,-1.92008 3.9878,-2.05919 5.47378,-0.2932 0.62718,0.74536 0.69066,0.99421 0.5521,2.16418 -0.19259,1.62605 -1.59224,3.77001 -3.32762,5.09717 -1.34618,1.02951 -4.8756,2.78333 -6.49809,3.22899 -1.62786,0.44713 -2.8489,0.35198 -4.12557,-0.32149 z m -85.107324,-1.51209 c -1.871359,-0.95682 -1.790915,-2.72899 0.137673,-3.03296 3.424436,-0.53972 4.312034,-0.77682 5.367224,-1.43372 0.647898,-0.40335 1.342868,-1.04163 1.544372,-1.41841 0.340572,-0.63681 0.304787,-0.76283 -0.50806,-1.78913 -0.841582,-1.06258 -1.842688,-3.51919 -1.842688,-4.52177 0,-1.07866 0.866595,-2.61198 1.803482,-3.19101 1.164436,-0.71966 3.218693,-0.76721 4.500848,-0.10418 1.134753,0.5868 1.220544,0.8908 0.700283,2.4814 -0.415046,1.26894 -0.411242,1.3867 0.08074,2.4989 0.730943,1.65242 3.073979,3.46611 5.4669,4.2318 0.445064,0.14241 2.239984,0.33783 3.988713,0.43425 2.726555,0.15035 3.301365,0.2621 4.034896,0.78441 1.194461,0.85054 1.19253,1.96791 -0.0045,2.60368 -1.28324,0.68154 -6.985029,0.58997 -9.831906,-0.15791 -2.643894,-0.69455 -2.967025,-0.68848 -3.967599,0.0746 -2.18779,1.66849 -5.171234,2.71253 -8.491641,2.97159 -1.563455,0.12199 -2.027661,0.0547 -2.978729,-0.43154 z m 77.386044,-12.57883 c -4.60773,-0.91709 -8.974481,-2.72956 -11.114354,-4.61315 -2.13232,-1.87694 -2.236404,-2.66622 -0.481661,-3.65244 1.759098,-0.98867 3.900415,-0.67892 5.187245,0.75036 1.34547,1.49441 4.57388,3.08019 7.48687,3.67753 1.98584,0.40721 6.11297,0.35636 7.85259,-0.0968 2.22535,-0.57962 4.01586,-1.66993 5.04523,-3.07221 1.67824,-2.28622 3.70734,-2.52119 7.26364,-0.84112 4.12867,1.95048 5.90701,1.8468 8.61272,-0.50212 2.47037,-2.14461 3.04542,-2.42391 4.43029,-2.15173 1.08732,0.21371 1.11407,0.24472 1.19602,1.38657 0.0461,0.64238 -0.0695,1.45446 -0.25689,1.80462 -0.53039,0.99103 -4.54711,3.95702 -5.83239,4.30669 -1.98793,0.54083 -5.12796,0.44052 -7.89968,-0.25236 l -2.52805,-0.63197 -1.40277,1.00779 c -1.99152,1.43077 -4.21483,2.42039 -6.49654,2.89169 -2.43144,0.50222 -8.51314,0.49596 -11.06227,-0.0114 z m 31.65533,-15.6706 c -4.09413,-2.30353 -6.0717,-4.46117 -6.36595,-6.94561 -0.39969,-3.37479 2.48144,-6.20813 8.33863,-8.20031 3.5503,-1.20755 6.51412,-0.91494 7.25746,0.71653 0.3745,0.82194 -0.29688,1.57689 -1.76346,1.98295 -5.47278,1.5153 -7.64324,3.20265 -7.19475,5.59332 0.20481,1.09176 1.57483,2.45203 3.86438,3.83693 1.45499,0.88008 1.71979,1.15354 1.71979,1.77602 0,1.08741 -1.10206,1.79566 -2.973,1.91063 -1.29374,0.0795 -1.73081,-0.0221 -2.8831,-0.67046 z m 38.92194,-3.49001 c 0,-10.1137 0.0329,-14.25112 0.0731,-9.19427 0.0402,5.05685 0.0402,13.33169 0,18.38854 -0.0402,5.05685 -0.0731,0.91943 -0.0731,-9.19427 z m 0.18115,-19.05 c 0,-0.3638 0.06,-0.51263 0.13345,-0.33073 0.0734,0.1819 0.0734,0.47956 0,0.66146 -0.0734,0.1819 -0.13345,0.0331 -0.13345,-0.33073 z m -0.28547,-1.47725 c 0.0127,-0.30823 0.0754,-0.37092 0.15985,-0.15986 0.0764,0.191 0.067,0.4192 -0.0209,0.50712 -0.0879,0.0879 -0.15045,-0.0683 -0.13896,-0.34726 z m 0.26458,-1.05834 c 0.0127,-0.30822 0.0754,-0.37092 0.15985,-0.15985 0.0764,0.19099 0.067,0.4192 -0.0209,0.50712 -0.0879,0.0879 -0.15046,-0.0683 -0.13897,-0.34727 z"
         id="path840"
         inkscape:connector-curvature="0" />
      <path
         style="fill:#e9c6af;stroke-width:0.26458332"
         d="m -51.735496,140.43935 c -0.30551,-0.30588 -0.231748,-46.079789 0.07641,-47.415712 0.780996,-3.385786 3.734722,-6.717763 7.8636,-8.870606 l 2.444887,-1.274791 v -1.179613 c 0,-1.540161 0.947082,-5.179698 1.783586,-6.854137 2.768279,-5.541293 8.671102,-10.260904 16.036649,-12.822126 2.845398,-0.98943 5.017627,-1.597665 5.705848,-1.597665 0.306999,0 0.764924,-0.111509 1.017612,-0.247796 0.252687,-0.136288 1.386805,-0.452821 2.520262,-0.703407 1.133456,-0.250586 2.122749,-0.555796 2.198428,-0.678246 0.07568,-0.122449 0.365262,-0.222635 0.643525,-0.222635 0.278259,0 1.6269226,-0.765363 2.9970277,-1.700806 4.0853943,-2.789315 6.5192143,-3.861127 11.4147706,-5.026864 3.9613787,-0.943289 5.483868,-1.167936 9.2604167,-1.366398 3.266435,-0.171655 3.482422,-0.21808 4.290555,-0.922215 4.180895,-3.642863 11.405007,-6.510718 18.698027,-7.422813 3.854691,-0.482084 13.642129,-0.44871 15.640585,0.05333 0.436562,0.109671 1.567656,0.264654 2.513541,0.344407 0.945886,0.07975 2.553229,0.331934 3.571875,0.560403 4.576152,1.02637 4.664718,1.03052 6.235065,0.292157 7.254666,-3.411084 19.089841,-4.074514 27.49931,-1.541494 2.375689,0.715583 6.12688,2.169218 6.35,2.460709 0.439981,0.574801 1.928165,1.029336 2.964339,0.905396 3.143317,-0.375984 9.761207,-0.402412 12.513787,-0.04997 7.45965,0.955133 13.09692,4.013699 15.21447,8.254783 l 0.66053,1.322917 0.031,9.392708 0.031,9.392708 -0.2258,-8.545655 c -0.2471,-9.352234 -0.4018,-10.395997 -1.86908,-12.611195 -3.25326,-4.911519 -12.85734,-7.667846 -23.65386,-6.788551 l -4.000252,0.32579 -2.354438,-1.213703 c -4.887375,-2.519425 -10.936986,-3.851349 -17.415594,-3.834337 -5.900656,0.01549 -9.630093,0.783582 -16.075173,3.310725 -1.219391,0.478128 -1.284436,0.476329 -4.233334,-0.117083 -6.740448,-1.356391 -7.476434,-1.426382 -15.298041,-1.454822 -7.913,-0.02877 -8.854895,0.06096 -13.758334,1.310731 -5.223444,1.331332 -8.842346,3.077754 -12.567708,6.064966 -1.005361,0.806157 -1.204008,0.856989 -3.96875,1.015575 -4.1517808,0.238147 -8.3196298,0.946825 -12.17083333,2.069461 -3.09324637,0.90169 -6.36711057,2.4567 -8.36949317,3.975316 -2.1076655,1.598462 -4.2009695,2.486368 -8.0346735,3.408026 -7.58398,1.823259 -12.27165,3.697882 -16.069249,6.426167 -3.806296,2.734535 -5.929004,5.149043 -7.511655,8.544256 -0.818761,1.756463 -1.686804,5.48849 -1.686804,7.252176 0,0.643795 -0.209314,0.832104 -1.700646,1.529982 -4.435425,2.075585 -7.213048,4.832932 -8.436232,8.374642 -0.179922,0.520962 -0.329563,9.070199 -0.427741,24.437629 -0.08305,12.99999 -0.240303,23.54695 -0.349444,23.43768 z m 40.547396,-9.92968 c -12.575765,-0.70293 -23.10836,-5.33355 -27.838611,-12.23918 -2.394121,-3.49514 -2.796795,-5.81924 -1.681153,-9.70306 1.203099,-4.18828 1.224179,-3.97472 -0.57933,-5.86905 -1.892262,-1.98755 -2.729006,-3.285116 -3.371668,-5.228544 -1.352253,-4.089257 0.126054,-7.263981 4.604737,-9.888865 0.900127,-0.52755 2.229149,-1.152998 2.953381,-1.389883 0.724233,-0.236884 1.604586,-0.657082 1.95634,-0.93377 0.585098,-0.46024 0.639036,-0.68894 0.63347,-2.68597 -0.01171,-4.201946 1.192902,-7.094114 4.330529,-10.39722 4.127362,-4.34504 10.471917,-7.402216 18.59543,-8.960363 4.4832508,-0.859917 5.2736697,-1.194647 7.7532124,-3.283363 2.7844221,-2.345539 5.2353104,-3.499821 9.5769959,-4.510429 2.890147,-0.672735 6.6848167,-1.08069 10.0522357,-1.08069 3.057011,0 3.967808,-0.286543 5.465238,-1.719399 3.249962,-3.10982 8.070977,-5.310692 13.983568,-6.383729 1.952323,-0.354314 3.998177,-0.482226 7.805208,-0.488002 5.811317,-0.0088 8.90065,0.370033 14.948959,1.833216 2.037291,0.492854 4.795975,1.025658 6.130403,1.184009 3.400455,0.403517 4.806069,0.694946 7.162824,1.485084 5.032449,1.687204 8.415219,4.84103 8.929084,8.324764 0.223237,1.513424 -0.423505,4.397723 -1.296008,5.779859 -1.189752,1.884688 -0.967227,2.748444 0.824293,3.199553 2.46162,0.619842 4.420095,-0.233415 5.520619,-2.405195 1.189289,-2.346949 1.471142,-3.438637 1.470345,-5.695052 -5.29e-4,-1.535981 0.09929,-2.199327 0.345197,-2.293691 0.696232,-0.267169 3.856492,0.315993 5.304226,0.978788 1.9572,0.896035 2.709498,1.514127 3.85172,3.164599 0.698807,1.009748 1.221647,1.461082 1.990061,1.717887 1.970054,0.658394 4.616454,-0.273561 4.612364,-1.62429 -0.004,-1.378881 -2.72101,-4.234922 -5.335352,-5.608721 -2.871623,-1.508994 -5.852078,-2.249921 -9.744151,-2.422349 L 84.458775,53.220093 83.26815,52.100671 c -2.561153,-2.407989 -6.676244,-4.528919 -10.896476,-5.616076 -1.04562,-0.269359 -1.803524,-0.606753 -1.803524,-0.802872 0,-0.18605 0.04317,-0.338273 0.09594,-0.338273 0.05277,0 1.094566,-0.253345 2.315104,-0.562989 1.805017,-0.457923 3.009194,-0.563236 6.452495,-0.564316 3.72464,-0.0012 4.583059,0.08539 7.14375,0.720298 2.729703,0.676818 7.118638,2.643946 8.364064,3.748788 0.926253,0.821698 2.104408,0.919542 5.658857,0.469958 4.16886,-0.527299 10.50881,-0.392865 12.96458,0.274906 4.76768,1.296423 7.71438,3.783991 8.21875,6.938162 0.34331,2.146917 -1.12056,5.903695 -3.46375,8.889165 -3.12591,3.982736 -10.43883,8.532881 -17.3448,10.79205 -6.103294,1.996588 -13.086482,3.023071 -18.498743,2.719197 -3.422661,-0.192164 -4.383717,0.126418 -5.459177,1.809681 -1.173358,1.836489 -2.485864,3.394265 -2.859839,3.394265 -0.190349,0 -0.415025,-0.344685 -0.499282,-0.765968 -0.133718,-0.668594 -0.398592,-0.857713 -2.083594,-1.487681 -2.657528,-0.993561 -5.158311,-2.406319 -5.686517,-3.212462 -0.242713,-0.370427 -0.878793,-0.949682 -1.41351,-1.287235 -1.484897,-0.937374 -3.429331,-3.67089 -3.429331,-4.821005 0,-1.256188 1.364581,-3.277893 3.586983,-5.314322 1.376129,-1.260973 2.016897,-1.655268 3.050048,-1.876838 3.121257,-0.669391 3.818646,-1.404355 2.973525,-3.133741 l -0.482431,-0.987205 -2.248958,0.02055 c -2.486367,0.02271 -4.656069,0.657641 -6.416638,1.877716 -1.073716,0.744086 -2.735419,2.943162 -4.163613,5.51007 -0.485794,0.873125 -0.911786,1.625547 -0.946648,1.67205 -0.03486,0.0465 -1.712055,-0.116655 -3.727095,-0.362569 -4.174768,-0.509492 -7.107018,-0.403918 -10.823197,0.389678 -5.407215,1.154721 -7.298277,2.94163 -4.768024,4.505413 1.139081,0.70399 2.037942,0.683932 4.275635,-0.09541 4.000293,-1.393217 7.375281,-1.69263 11.017451,-0.977416 3.348818,0.657611 3.687275,0.847905 4.635656,2.606334 1.292436,2.396363 4.950063,5.754869 7.908139,7.261415 3.046971,1.551818 4.451755,1.919642 6.509893,1.704525 l 1.632281,-0.170609 -0.897475,0.92596 c -3.170274,3.27089 -11.2097,6.884175 -18.788449,8.444381 -6.758911,1.39143 -10.111155,1.526926 -12.654872,0.511505 -6.042515,-2.412097 -7.742635,-6.431872 -3.778639,-8.934235 1.22501,-0.773314 4.177585,-1.842897 6.247053,-2.263021 2.702044,-0.548545 3.652322,-2.125064 1.918229,-3.182361 -1.085733,-0.661984 -2.394053,-0.662212 -5.152467,-7.93e-4 -1.196747,0.286914 -2.327841,0.462057 -2.513541,0.389212 -0.185701,-0.07284 -0.609082,-0.550304 -0.940848,-1.061019 -1.350108,-2.078331 -5.250815,-3.702161 -9.617043,-4.003489 -2.794744,-0.192876 -7.010657,0.48025 -8.030044,1.282099 -0.860017,0.676489 -0.857358,1.621676 0.0065,2.301166 0.945009,0.743344 2.003287,0.916072 3.338872,0.544962 0.63064,-0.175231 2.218182,-0.327707 3.52787,-0.338833 2.063239,-0.01754 2.534885,0.06665 3.531668,0.630325 1.930694,1.0918 2.390223,2.674972 1.235089,4.255145 -1.409158,1.92767 -1.723983,2.523519 -2.011019,3.806121 -0.858808,3.837559 2.457778,7.355859 9.259904,9.82309 2.443969,0.886465 2.536441,1.023157 2.536441,3.74937 0,2.02977 -0.09362,2.49062 -0.781868,3.84895 -1.602983,3.16364 -5.720278,5.92579 -10.330632,6.93046 -3.458909,0.75375 -3.828971,1.00994 -4.677622,3.23828 -2.673887,7.02094 -10.348534,12.02303 -21.6484198,14.10973 -3.35305395,0.6192 -8.3894268,0.78975 -14.0229162,0.47486 z m -5.742662,-4.03331 c 0.320807,-0.34283 0.880943,-1.1347 1.244745,-1.7597 0.530911,-0.91209 0.998906,-1.29069 2.371231,-1.91829 1.866833,-0.85375 2.536311,-0.8612 5.301686,-0.059 1.7256231,0.50057 7.83651119,0.81363 10.4398815,0.53484 1.5028625,-0.16095 1.9551941,-0.32679 2.5710806,-0.94268 0.9401837,-0.94018 0.9345428,-1.17077 -0.052787,-2.1581 l -0.8001608,-0.80016 -3.49931834,0.18509 c -4.18042726,0.22112 -6.13948426,-0.0724 -8.80095186,-1.31842 -2.7692001,-1.29649 -3.5756031,-2.36202 -3.8874301,-5.1366 -0.126757,-1.12786 -1.326854,-1.74634 -3.388601,-1.74634 -2.139431,0 -2.604751,0.31854 -2.821056,1.93121 -0.214151,1.59662 0.0949,2.77296 1.120044,4.26326 0.504468,0.73337 0.917216,1.39409 0.917216,1.46826 0,0.0742 -0.738886,0.50785 -1.64197,0.96372 -2.161212,1.09098 -3.430381,2.13691 -4.152879,3.42242 -0.792181,1.4095 -0.649758,2.33372 0.476163,3.08998 1.299644,0.87295 3.777834,0.86246 4.603107,-0.0195 z m 34.18537,-14.45056 c 4.10931,-0.88618 6.732773,-2.10774 8.719344,-4.05999 1.632111,-1.60391 2.494804,-3.50412 2.103414,-4.63309 -0.685081,-1.9761 -5.948297,-2.26657 -6.338464,-0.34981 -0.550249,2.70317 -1.075812,3.35991 -3.567534,4.45795 -2.182423,0.96175 -3.976923,1.26325 -7.531343,1.26539 -3.4010918,0.002 -3.4618057,-0.009 -5.4254903,-0.94497 -2.3440099,-1.11782 -3.9634371,-2.6438 -5.37393618,-5.06383 -0.90209162,-1.54775 -1.13505192,-1.76767 -2.18333902,-2.06118 -1.6097673,-0.4507 -2.4920549,-0.2529 -5.6892878,1.27551 -4.0745437,1.9478 -5.6889117,2.30285 -10.4321137,2.29434 -4.428535,-0.008 -5.407951,-0.24148 -9.500825,-2.26543 -2.398072,-1.18585 -2.988394,-1.24803 -4.571852,-0.48148 -1.34755,0.65233 -1.730109,1.55987 -0.998377,2.36842 1.129915,1.24854 5.492638,3.08771 9.117929,3.8438 4.689798,0.97811 12.54442,0.41692 16.6123994,-1.18689 1.9769878,-0.77944 2.4398631,-0.7119 3.6406746,0.53124 2.5389046,2.62838 6.5262575,4.56159 10.835468,5.25343 2.6469843,0.42496 8.061473,0.30044 10.583333,-0.24341 z M 3.2742129,96.425298 C 5.0386106,95.349447 4.7537443,94.558732 1.4063709,91.240653 -4.9812634,84.908918 -14.456008,81.209413 -23.09435,81.674109 c -4.526463,0.243498 -8.760815,1.378198 -9.17548,2.458796 -0.296138,0.771724 0.491463,1.753368 1.739963,2.168636 1.077201,0.358294 1.361581,0.340419 3.836459,-0.241154 8.586012,-2.017633 16.474461,0.773017 23.6189782,8.355549 l 2.37561699,2.521262 1.56837856,-0.0011 C 1.9511586,96.935346 2.6974979,96.776885 3.2742129,96.42523 Z M 13.947317,88.244406 c 0.363802,-0.268216 0.698412,-0.795856 0.743579,-1.172536 0.09843,-0.820912 -0.499708,-1.274291 -2.663161,-2.01863 -4.2247577,-1.453528 -6.9156602,-4.437227 -6.4187224,-7.117141 0.3910833,-2.109052 2.4191648,-3.613591 6.1357744,-4.551841 1.465866,-0.370054 2.24403,-0.720257 2.665551,-1.199597 0.77865,-0.885455 0.753512,-1.10291 -0.223661,-1.934705 -2.622642,-2.232466 -3.41436,-3.063726 -3.41436,-3.584884 0,-1.001951 0.724387,-1.658649 2.395352,-2.171523 2.694763,-0.827111 3.547248,-2.042173 2.272797,-3.239457 -0.935831,-0.879167 -2.177486,-0.964094 -4.555813,-0.31161 -2.4794973,0.680241 -4.5256366,1.792768 -5.6477689,3.070806 -0.6911499,0.787175 -0.8145674,1.140796 -0.8145674,2.333929 0,1.123823 0.1584192,1.639978 0.7889345,2.57048 0.4339141,0.640361 0.7911016,1.304814 0.79375,1.47656 0.00265,0.171749 -0.8583877,0.728578 -1.9134137,1.237401 -3.8260946,1.845265 -5.3748834,3.899662 -5.1747182,6.864035 0.060923,0.902256 0.31366091,2.06072 0.56164164,2.574369 C 1.9413135,86.171361 10.800699,90.56428 13.947317,88.244406 Z M -20.532051,77.334429 c 0.628026,-0.304022 1.141868,-0.651068 1.141868,-0.771216 0,-0.450122 2.651379,-2.14169 4.401918,-2.808406 1.457377,-0.555059 2.416381,-0.715423 4.858498,-0.812427 3.2698799,-0.129887 4.3659534,-0.399642 4.7819207,-1.176885 0.3010774,-0.56257 0.05633,-1.161201 -0.7866644,-1.9241 -1.8193888,-1.646526 -10.4862473,-0.631886 -14.8169893,1.734642 -1.856301,1.014373 -2.267675,1.310352 -3.642871,2.620997 -1.286653,1.226257 -1.415206,1.831073 -0.558781,2.628953 1.189281,1.107985 2.976425,1.304615 4.621101,0.508442 z M 43.721411,66.486158 c 3.985326,-0.736727 8.354359,-3.310723 10.073815,-5.934946 0.934561,-1.426321 -0.60378,-2.769725 -3.173498,-2.771357 -1.555866,-9.79e-4 -1.559798,0.001 -3.042708,1.553107 -1.885101,1.973042 -2.862948,2.628386 -4.839962,3.243702 -3.201778,0.996506 -6.459471,0.515983 -10.4032,-1.534516 -1.951842,-1.014838 -2.626936,-1.236523 -3.743685,-1.229337 -2.469901,0.01589 -3.805745,1.634902 -2.407877,2.91829 1.325941,1.217351 5.666914,3.05566 8.586711,3.636288 2.225693,0.4426 6.865577,0.504169 8.950404,0.118769 z"
         id="path838"
         inkscape:connector-curvature="0" />
      <path
         style="fill:#0082c3;stroke-width:0.26458332"
         d="m 81.019192,225.3455 c -2.177796,-0.18569 -6.698515,-0.95588 -9.128125,-1.55516 -2.417681,-0.59633 -2.876802,-0.61863 -12.038542,-0.58468 -9.830903,0.0364 -10.357242,-0.003 -16.271875,-1.21377 -3.245101,-0.66439 -8.165304,-2.24247 -11.365759,-3.64537 -4.662252,-2.04368 -7.927049,-4.16229 -10.76071,-6.9829 -1.718834,-1.71092 -2.365613,-2.58892 -3.222578,-4.37462 -0.589679,-1.22875 -1.198917,-2.94847 -1.353857,-3.8216 -0.184015,-1.03695 -0.305151,-11.03855 -0.3493,-28.83958 -0.03717,-14.98864 -0.0042,-25.82333 0.07334,-24.07708 0.131078,2.95298 0.201999,3.28868 1.014214,4.80081 2.640116,4.91516 7.446921,8.62677 16.04277,12.38753 0.798108,0.34919 4.681524,1.61865 7.14375,2.33525 0.727604,0.21176 2.037292,0.5158 2.910417,0.67564 0.873125,0.15984 2.599531,0.50072 3.836458,0.75751 1.912001,0.39694 3.755353,0.46874 12.303125,0.47924 9.536046,0.0117 10.17688,0.0431 12.435417,0.60992 3.345595,0.8396 3.329445,0.83665 6.867895,1.25395 4.051229,0.47776 7.176323,0.47868 11.009188,0.003 3.656216,-0.45356 3.970028,-0.52237 6.957224,-1.5255 3.332946,-1.11923 4.522246,-1.66482 6.510706,-2.98674 l 1.75151,-1.16441 4.08924,-0.17599 c 4.91079,-0.21136 11.83511,-1.15876 15.46632,-2.11614 9.66523,-2.54828 15.62619,-6.13259 19.60874,-11.79072 1.95984,-2.78438 3.33803,-3.96513 6.32324,-5.41736 1.41268,-0.68722 3.18059,-1.66241 3.92868,-2.16708 3.37579,-2.27732 6.07803,-6.27934 6.65075,-9.84974 0.23074,-1.43848 0.68341,-1.99706 1.95131,-2.40784 3.12935,-1.01386 7.8949,-4.23039 9.79431,-6.61072 2.24036,-2.8076 3.45045,-6.36247 3.12646,-9.18455 -0.68251,-5.94482 -1.37361,-8.82814 -2.58868,-10.79999 -0.2796,-0.45374 -0.50836,-0.95016 -0.50836,-1.10316 0,-0.56901 2.68286,-3.18859 3.67022,-3.58365 0.5629,-0.22523 1.10128,-0.61231 1.19639,-0.86017 0.0951,-0.24786 0.24915,-0.37444 0.3423,-0.28128 0.20208,0.20207 0.0501,40.85067 -0.17476,46.73761 -0.16731,4.38049 -0.39096,5.25884 -1.81902,7.14375 l -0.70159,0.92604 -0.01,8.86355 -0.01,8.86354 -0.99655,2.05941 c -1.56428,3.23266 -5.10653,6.52442 -8.98969,8.35397 -1.33465,0.62883 -3.31764,1.48738 -3.94293,1.70713 -0.25032,0.088 -0.50869,0.43294 -0.57415,0.7666 -0.88004,4.48578 -1.74191,6.27511 -4.23977,8.80214 -1.88128,1.90326 -3.72131,3.13144 -6.57848,4.39101 -2.48791,1.09678 -4.56178,2.99177 -7.07017,6.46034 -1.74578,2.41404 -4.43457,4.79413 -6.74688,5.97226 -0.58208,0.29658 -1.23692,0.64764 -1.45521,0.78014 -2.86433,1.73873 -9.82699,4.00031 -14.70335,4.77588 -1.00821,0.16035 -2.48795,0.40456 -3.28831,0.54268 -0.80037,0.13812 -3.77692,0.33973 -6.61458,0.44802 l -5.15937,0.1969 -1.3628,0.96927 c -5.32252,3.78557 -14.416103,5.78661 -22.978853,5.05651 z M 16.611999,146.66074 c -0.02302,-0.50671 0.773366,-3.2466 0.905311,-3.11466 0.05193,0.0519 -0.126285,0.86734 -0.396025,1.81203 -0.26974,0.9447 -0.498917,1.53088 -0.509286,1.30263 z m 1.039484,-3.54389 c 0,-0.52674 2.148039,-3.79531 3.442298,-5.23799 0.751951,-0.83819 2.100755,-2.06862 2.997338,-2.7343 l 1.630156,-1.21033 -1.322917,1.12994 c -2.492557,2.12895 -4.389588,4.26938 -5.567889,6.28227 -0.648441,1.10774 -1.178986,1.90442 -1.178986,1.77041 z m 8.598959,-9.53965 c 0.291041,-0.23697 0.767291,-0.54777 1.058333,-0.69065 l 0.529167,-0.25979 -0.529167,0.43085 c -0.291042,0.23698 -0.767292,0.54777 -1.058333,0.69065 l -0.529167,0.2598 z m 1.719791,-1.01048 c 0,-0.1791 1.901077,-1.27289 2.01476,-1.15921 0.05279,0.0528 -0.378931,0.36291 -0.959387,0.68914 -0.580454,0.32624 -1.055373,0.53777 -1.055373,0.47007 z m 2.645834,-1.49827 c 0.218281,-0.14107 0.515937,-0.25648 0.661458,-0.25648 0.145521,0 0.08599,0.11541 -0.132292,0.25648 -0.218281,0.14106 -0.515937,0.25648 -0.661458,0.25648 -0.145521,0 -0.08599,-0.11542 0.132292,-0.25648 z m 1.203854,-0.51184 c 0.300421,-0.29553 3.895241,-1.62101 4.030223,-1.48603 0.05176,0.0518 -0.598723,0.34453 -1.445509,0.6506 -0.846785,0.30608 -1.746353,0.67489 -1.99904,0.81959 -0.579747,0.33199 -0.916316,0.34109 -0.585674,0.0158 z m 4.56737,-1.78557 c 0.190994,-0.0764 0.4192,-0.067 0.507119,0.0209 0.08792,0.0879 -0.06835,0.15045 -0.347266,0.13896 -0.308226,-0.0127 -0.370919,-0.0754 -0.159853,-0.15985 z m 1.835547,-0.52365 c 0.181901,-0.0734 0.479557,-0.0734 0.661458,0 0.181901,0.0734 0.03307,0.13345 -0.330729,0.13345 -0.363802,0 -0.512631,-0.0601 -0.330729,-0.13345 z m 1.785937,-0.47141 c 0.436562,-0.21331 1.091406,-0.38102 1.455208,-0.37268 0.60878,0.0139 0.598244,0.0325 -0.132291,0.23257 -1.920693,0.52611 -2.166141,0.5521 -1.322917,0.14011 z m 2.711979,-0.58693 c 0.181901,-0.0734 0.479557,-0.0734 0.661459,0 0.181901,0.0734 0.03307,0.13346 -0.33073,0.13346 -0.363802,0 -0.51263,-0.0601 -0.330729,-0.13346 z m 1.5875,-0.27608 c 0.327422,-0.0631 0.863203,-0.0631 1.190625,0 0.327422,0.0631 0.05953,0.11467 -0.595312,0.11467 -0.654844,0 -0.922735,-0.0516 -0.595313,-0.11467 z m 2.711979,-0.38483 c 0.544259,-0.15237 1.630289,-0.93337 2.634242,-1.89437 l 1.708203,-1.63511 -1.301697,1.4552 c -1.592215,1.77999 -2.44053,2.38457 -3.305331,2.35565 -0.550124,-0.0184 -0.50559,-0.0658 0.264583,-0.28137 z m 4.894792,-3.92636 c 0.26339,-0.29104 0.538422,-0.52917 0.611182,-0.52917 0.07276,0 -0.08321,0.23813 -0.346599,0.52917 -0.26339,0.29104 -0.538421,0.52917 -0.611182,0.52917 -0.07276,0 0.08321,-0.23813 0.346599,-0.52917 z m 0.926042,-0.62172 c 0,-0.0611 0.312316,-0.31581 0.694033,-0.56592 0.38172,-0.25011 0.613215,-0.32398 0.514433,-0.16414 -0.18877,0.30543 -1.208466,0.92145 -1.208466,0.73006 z m 1.852083,-1.23036 c 0.218281,-0.14107 0.515938,-0.25648 0.661458,-0.25648 0.145521,0 0.08599,0.11541 -0.132291,0.25648 -0.218282,0.14106 -0.515938,0.25648 -0.661459,0.25648 -0.145521,0 -0.08599,-0.11542 0.132292,-0.25648 z m 1.852083,-0.79375 c 0.509323,-0.27884 1.104636,-0.50936 1.322917,-0.51227 0.218281,-0.003 -0.122142,0.23023 -0.756497,0.51808 -1.459169,0.66211 -1.780407,0.65882 -0.56642,-0.006 z m 3.668398,-1.20098 c 0.489651,-0.21259 1.025432,-0.38186 1.190625,-0.37617 0.165193,0.006 -0.100269,0.18429 -0.58992,0.39688 -0.489651,0.21258 -1.025433,0.38186 -1.190625,0.37616 -0.165193,-0.006 0.100269,-0.18429 0.58992,-0.39687 z m 1.821707,-0.56175 c 0.181901,-0.0734 0.479557,-0.0734 0.661458,0 0.181901,0.0734 0.03307,0.13345 -0.330729,0.13345 -0.363802,0 -0.512631,-0.06 -0.330729,-0.13345 z m 1.322916,-0.26458 c 0.181901,-0.0734 0.479557,-0.0734 0.661458,0 0.181902,0.0734 0.03307,0.13345 -0.330729,0.13345 -0.363802,0 -0.51263,-0.0601 -0.330729,-0.13345 z m 3.770313,-0.48522 c 1.236927,-0.20651 4.040849,-0.38051 6.230937,-0.38668 2.797479,-0.008 4.092305,-0.10959 4.352864,-0.34194 0.312251,-0.27844 0.319217,-0.26201 0.04406,0.10393 -0.27473,0.36538 -1.116185,0.45959 -5.278906,0.59108 -2.723645,0.086 -5.547392,0.21326 -6.274996,0.28274 -0.727604,0.0695 -0.310885,-0.0426 0.926041,-0.24913 z m 10.870565,-1.45622 c -0.008,-0.21828 0.100869,-0.57547 0.241935,-0.79375 0.312557,-0.48365 0.312557,-0.0659 0,0.66146 -0.149934,0.34891 -0.232344,0.39398 -0.241935,0.13229 z m 0.506518,-1.42165 c 0,-0.28575 1.050981,-2.28252 1.20138,-2.28252 0.07276,0 -0.122888,0.50602 -0.434776,1.12448 -0.613347,1.21625 -0.766604,1.44776 -0.766604,1.15804 z m 1.5875,-3.17616 c 0,-0.055 0.208359,-0.2633 0.463021,-0.46303 0.419645,-0.3291 0.429003,-0.31974 0.0999,0.0999 -0.345644,0.44073 -0.562917,0.58089 -0.562917,0.36313 z m 1.520346,-1.88448 c 0.449551,-0.58209 1.389825,-1.59412 2.089502,-2.24896 0.974788,-0.91233 0.875837,-0.75772 -0.423339,0.66146 -2.326695,2.5416 -2.615681,2.81695 -1.666163,1.5875 z m 3.767437,-3.67401 c 0.216146,-0.27445 0.811458,-0.7795 1.322916,-1.12232 3.27701,-2.19655 4.133207,-2.73436 4.360588,-2.73904 0.140612,-0.003 -0.395169,0.40503 -1.190625,0.9065 -1.550358,0.97736 -3.001833,1.96695 -3.513651,2.39553 -0.173781,0.14552 -0.553622,0.44318 -0.844092,0.66146 -0.498698,0.37476 -0.506228,0.36907 -0.135136,-0.10213 z m 6.0893,-3.98029 c 0,-0.0728 0.238125,-0.25973 0.529167,-0.4155 0.291042,-0.15576 0.529167,-0.22367 0.529167,-0.15091 0,0.0728 -0.238125,0.25974 -0.529167,0.4155 -0.291042,0.15576 -0.529167,0.22367 -0.529167,0.15091 z m 3.307292,-1.71413 c 0.436562,-0.272789 1.091406,-0.573745 1.455208,-0.668796 0.363802,-0.09505 0.06615,0.129056 -0.661458,0.498012 -1.560724,0.791414 -1.905855,0.865674 -0.79375,0.170784 z m 2.874515,-1.216537 c 0.416817,-0.217384 0.893067,-0.394512 1.058334,-0.393615 0.165266,7.94e-4 -0.04055,0.179491 -0.457364,0.396875 -0.416817,0.217384 -0.893067,0.394512 -1.058334,0.393615 -0.165266,-7.93e-4 0.04055,-0.17949 0.457364,-0.396875 z m 3.87236,-1.321286 c 0.3638,-0.207968 0.84005,-0.381609 1.05833,-0.385869 0.21828,-0.0043 0.0559,0.170114 -0.36097,0.387499 -0.96598,0.503793 -1.579,0.502361 -0.69736,-0.0016 z m 2.11667,-0.661459 c 0.3638,-0.116509 0.89958,-0.211836 1.19062,-0.211836 0.41901,0 0.39147,0.0441 -0.13229,0.211836 -0.3638,0.11651 -0.89958,0.211836 -1.19063,0.211836 -0.41901,0 -0.39147,-0.0441 0.1323,-0.211836 z m 2.18281,-0.550359 c 0.27063,-0.157626 0.47949,-0.621525 0.50266,-1.116434 0.0385,-0.822679 0.0428,-0.825611 0.15141,-0.103145 0.11512,0.765858 -0.29262,1.511499 -0.81876,1.497309 -0.16408,-0.0044 -0.09,-0.129402 0.16469,-0.27773 z m 0.75398,-2.77898 c 0.0145,-0.424437 0.12753,-1.069358 0.25118,-1.43316 0.15161,-0.446077 0.17506,-0.230696 0.072,0.661458 -0.1719,1.488321 -0.36331,1.945359 -0.3232,0.771702 z m 0.64078,-2.756077 c 0.59992,-2.23424 3.94731,-6.468668 6.83434,-8.645424 1.92372,-1.450435 1.54621,-1.020387 -1.01921,1.161039 -2.19398,1.865598 -3.78193,3.853728 -5.0603,6.33558 -0.51284,0.995646 -0.85252,1.512607 -0.75483,1.148805 z m 9.23805,-10.36769 c 0.95776,-0.754943 2.79479,-1.877975 2.79479,-1.708541 0,0.06852 -0.62507,0.521742 -1.38906,1.007147 -1.92626,1.223867 -2.31405,1.417359 -1.40573,0.701394 z m 4.11771,-2.445983 c 0,-0.07276 0.23812,-0.259733 0.52917,-0.415493 0.29104,-0.155761 0.52916,-0.223671 0.52916,-0.150911 0,0.07276 -0.23812,0.259734 -0.52916,0.415494 -0.29105,0.15576 -0.52917,0.223671 -0.52917,0.15091 z m 1.87413,-1.041114 c 0.0606,-0.05305 0.4079,-0.23821 0.7717,-0.411469 0.6237,-0.297035 0.63214,-0.291526 0.14787,0.09645 -0.42148,0.337677 -1.28266,0.632693 -0.91957,0.315019 z m 3.39237,-1.641692 c 0.78653,-0.357132 1.47476,-0.604618 1.52941,-0.549971 0.11491,0.114906 -2.421,1.237377 -2.74392,1.214541 -0.11854,-0.0084 0.42799,-0.307438 1.21451,-0.66457 z m 1.87725,-0.747088 c 0,-0.05719 0.18478,-0.174889 0.41062,-0.261554 0.23546,-0.09035 0.34166,-0.046 0.24897,0.103984 -0.15538,0.25141 -0.65959,0.371859 -0.65959,0.15757 z"
         id="path836"
         inkscape:connector-curvature="0" />
      <path
         style="fill:#e12135;stroke-width:0.26458332"
         d="m -4.1766417,135.16896 c -0.1455208,-0.0615 -2.8244271,-0.23261 -5.9531253,-0.38033 -7.473434,-0.35285 -13.250166,-1.39881 -18.371277,-3.32639 -8.8664,-3.33731 -16.180379,-9.45887 -18.561866,-15.53569 -1.155548,-2.9486 -1.333705,-4.64792 -0.781649,-7.45564 0.600724,-3.05524 0.465823,-3.81236 -1.09265,-6.13235 -0.675933,-1.00622 -1.495143,-2.429676 -1.820467,-3.163241 -0.542602,-1.223499 -0.574929,-1.562777 -0.391062,-4.104248 0.161073,-2.226413 0.340724,-3.047338 0.914798,-4.180218 1.337574,-2.639576 4.028162,-4.977643 7.711861,-6.701454 1.491332,-0.697878 1.700646,-0.886187 1.700646,-1.529982 0,-1.763686 0.868043,-5.495713 1.686804,-7.252176 1.582651,-3.395213 3.705359,-5.809721 7.511655,-8.544256 3.797599,-2.728285 8.485269,-4.602908 16.069249,-6.426167 3.833704,-0.921658 5.927008,-1.809564 8.0346735,-3.408026 2.0023826,-1.518616 5.2762468,-3.073626 8.36949317,-3.975316 C 4.7016452,51.93084 8.8694942,51.222162 13.021275,50.984015 c 2.764742,-0.158586 2.963389,-0.209418 3.96875,-1.015575 3.725362,-2.987212 7.344264,-4.733634 12.567708,-6.064966 4.903439,-1.24977 5.845334,-1.339503 13.758334,-1.310731 7.821607,0.02844 8.557593,0.09843 15.298041,1.454822 2.948898,0.593412 3.013943,0.595211 4.233334,0.117083 6.44508,-2.527143 10.174517,-3.29523 16.075173,-3.310725 6.478608,-0.01701 12.528219,1.314912 17.415594,3.834337 l 2.354438,1.213703 4.000253,-0.32579 c 6.56163,-0.534395 12.82334,0.222376 17.08775,2.065172 5.9195,2.558017 8.21039,5.569369 8.19627,10.773904 -0.009,3.394572 -1.36669,5.810465 -5.6643,10.0807 -8.46093,8.407032 -22.654945,13.858197 -36.266345,13.92797 l -2.910417,0.01492 -2.513541,2.656353 c -5.560367,5.876287 -11.667035,9.231992 -22.225,12.212973 -1.875912,0.529651 -7.033758,1.477883 -9.323271,1.714013 -0.980456,0.101121 -1.891181,0.298445 -2.023833,0.438499 -0.132651,0.140055 -0.286189,1.450643 -0.341196,2.912423 -0.132458,3.52011 -0.833982,4.97598 -3.847272,7.98419 -1.810541,1.80749 -2.59384,2.37227 -4.632634,3.34023 -1.349518,0.64071 -3.507317,1.4953 -4.79511,1.8991 -2.307349,0.72348 -2.348913,0.75161 -2.854682,1.93152 -2.001904,4.67025 -6.640219,8.92685 -13.028316,11.95614 -4.412253,2.09233 -8.2604509,3.27127 -14.3193113,4.38691 -1.8917709,0.34834 -3.97536462,0.76052 -4.6302084,0.91596 -1.698453,0.40315 -2.4749442,0.50987 -2.778125,0.38181 z m 7.0114584,-5.13415 c 11.2998863,-2.08671 18.9745333,-7.0888 21.6484203,-14.10974 0.848651,-2.22834 1.218713,-2.48453 4.677621,-3.23828 4.610354,-1.00466 8.727649,-3.76681 10.330633,-6.93046 0.68825,-1.35833 0.781867,-1.81918 0.781867,-3.84895 0,-2.726211 -0.09247,-2.862902 -2.536441,-3.749368 -3.943824,-1.430483 -6.508737,-3.058258 -8.094046,-5.136734 -1.187275,-1.556623 -1.54472,-2.993424 -1.165857,-4.686356 0.287035,-1.282602 0.601861,-1.878451 2.011018,-3.806121 1.155134,-1.580173 0.695606,-3.163345 -1.235088,-4.255145 -0.996783,-0.563676 -1.46843,-0.647856 -3.531669,-0.630325 -1.309687,0.01111 -2.89723,0.163603 -3.52787,0.338833 -1.335584,0.37111 -2.393862,0.198382 -3.338872,-0.544962 -0.86383,-0.679489 -0.866489,-1.624676 -0.0065,-2.301166 1.019387,-0.801849 5.2353,-1.474975 8.030043,-1.282099 4.366228,0.301329 8.266936,1.925159 9.617043,4.00349 0.331767,0.510714 0.755148,0.988173 0.940848,1.061018 0.185701,0.07285 1.316794,-0.102298 2.513542,-0.389212 2.758413,-0.661313 4.066733,-0.661085 5.152467,7.94e-4 1.734092,1.057296 0.783814,2.633815 -1.91823,3.18236 -6.049272,1.228066 -9.322165,3.837908 -8.195254,6.534983 0.805455,1.927725 2.661208,3.438512 5.72684,4.662273 2.543717,1.015421 5.895962,0.879925 12.654873,-0.511505 7.578749,-1.560206 15.618174,-5.173491 18.788449,-8.444381 l 0.897474,-0.925959 -1.632281,0.170608 c -2.058138,0.215117 -3.462922,-0.152707 -6.509893,-1.704525 -2.958076,-1.506545 -6.615702,-4.865052 -7.908139,-7.261415 -0.94838,-1.758429 -1.286838,-1.948723 -4.635656,-2.606334 -3.642169,-0.715214 -7.017157,-0.4158 -11.017451,0.977416 -2.237692,0.779341 -3.136553,0.799399 -4.275635,0.09541 -2.530253,-1.563783 -0.639191,-3.350691 4.768025,-4.505412 3.716178,-0.793597 6.648428,-0.899171 10.823196,-0.389679 2.01504,0.245915 3.692234,0.409072 3.727096,0.362569 0.03487,-0.0464 0.460864,-0.798819 0.946658,-1.671944 3.089169,-5.552199 5.653503,-7.342774 10.580251,-7.387786 l 2.248958,-0.02055 0.482431,0.987206 c 0.845121,1.729385 0.147732,2.46435 -2.973525,3.13374 -2.427084,0.520516 -6.637031,5.081956 -6.637031,7.191161 0,1.150115 1.944434,3.883631 3.429331,4.821005 0.534717,0.337553 1.170797,0.916808 1.41351,1.287235 0.528206,0.806143 3.028989,2.218901 5.686517,3.212462 1.685002,0.629968 1.949876,0.819087 2.083594,1.487681 0.08426,0.421283 0.308933,0.765968 0.499282,0.765968 0.373975,0 1.686481,-1.557776 2.859839,-3.394265 1.07546,-1.683263 2.036516,-2.001845 5.459177,-1.809681 5.412261,0.303874 12.395449,-0.722609 18.498738,-2.719197 6.90597,-2.259169 14.21889,-6.809314 17.3448,-10.79205 2.34319,-2.98547 3.80706,-6.742248 3.46375,-8.889165 -0.50437,-3.154171 -3.45107,-5.641739 -8.21875,-6.938162 -2.45577,-0.667771 -8.79572,-0.802205 -12.96458,-0.274906 -3.554444,0.449584 -4.732599,0.35174 -5.658852,-0.469958 -1.245426,-1.104842 -5.634361,-3.07197 -8.364064,-3.748788 -2.560691,-0.634912 -3.41911,-0.721465 -7.14375,-0.720298 -3.443301,0.0011 -4.647478,0.106393 -6.452495,0.564316 -1.220538,0.309644 -2.262335,0.562989 -2.315104,0.562989 -0.05277,0 -0.09594,0.152223 -0.09594,0.338273 0,0.196119 0.757904,0.533513 1.803524,0.802872 4.220232,1.087157 8.335323,3.208087 10.896476,5.616076 l 1.190625,1.119422 3.307292,0.146521 c 3.892073,0.172428 6.872528,0.913355 9.744151,2.422349 2.614337,1.373799 5.331187,4.22984 5.335357,5.608721 0.004,1.350729 -2.64231,2.282684 -4.612369,1.62429 -0.768414,-0.256805 -1.291254,-0.708139 -1.990061,-1.717887 -1.142222,-1.650472 -1.89452,-2.268564 -3.85172,-3.164599 -1.447734,-0.662795 -4.607994,-1.245957 -5.304226,-0.978788 -0.245907,0.09436 -0.345739,0.75771 -0.345197,2.293691 7.94e-4,2.256415 -0.281056,3.348103 -1.470345,5.695052 -1.100524,2.17178 -3.058999,3.025037 -5.520619,2.405195 -1.79152,-0.451109 -2.014045,-1.314865 -0.824293,-3.199553 0.872503,-1.382136 1.519245,-4.266435 1.296009,-5.779859 -0.513866,-3.483734 -3.896636,-6.63756 -8.929085,-8.324764 -2.35674,-0.790137 -3.762354,-1.081566 -7.162809,-1.485083 -1.334428,-0.158351 -4.093112,-0.691155 -6.130403,-1.184009 -6.048309,-1.463183 -9.137642,-1.842033 -14.948959,-1.833216 -3.807031,0.0058 -5.852885,0.133688 -7.805208,0.488002 -5.912591,1.073037 -10.733606,3.273909 -13.983568,6.383729 -1.49743,1.432856 -2.408227,1.719399 -5.465238,1.719399 -3.367419,0 -7.1620887,0.407955 -10.0522357,1.08069 -4.3416855,1.010608 -6.7925738,2.16489 -9.5769959,4.510429 -2.4795427,2.088716 -3.2699616,2.423446 -7.7532124,3.283363 -8.123513,1.558147 -14.468068,4.615323 -18.59543,8.960363 -3.137627,3.303106 -4.342239,6.195274 -4.330529,10.39722 0.0056,1.99703 -0.04837,2.22573 -0.63347,2.68597 -0.351754,0.276688 -1.232107,0.696886 -1.95634,0.93377 -0.724232,0.236885 -2.053254,0.862333 -2.953381,1.389883 -4.478683,2.624884 -5.95699,5.799608 -4.604737,9.888865 0.642662,1.943428 1.479406,3.240994 3.371668,5.228544 1.803509,1.89433 1.782429,1.68077 0.57933,5.86905 -0.820097,2.85495 -0.823474,4.60423 -0.01274,6.59946 2.935182,7.22353 11.294169,12.49327 23.182504,14.6149 6.00606,1.07187 15.3128162,1.18745 20.3729167,0.25302 z m -24.3686857,-3.53897 c -2.196611,-1.47543 -0.560451,-4.37348 3.676716,-6.5124 0.903084,-0.45587 1.64197,-0.88955 1.64197,-0.96372 0,-0.0742 -0.412748,-0.73489 -0.917215,-1.46826 -1.025147,-1.4903 -1.334196,-2.66664 -1.120045,-4.26326 0.216305,-1.61267 0.681625,-1.93121 2.821056,-1.93121 2.061747,0 3.261844,0.61848 3.388601,1.74634 0.311827,2.77458 1.11823,3.84011 3.8874301,5.1366 2.6614676,1.24606 4.6205246,1.53954 8.80095186,1.31842 l 3.49931834,-0.18509 0.8001608,0.80016 c 0.9873298,0.98733 0.9929707,1.21792 0.052787,2.1581 -0.6158865,0.61589 -1.0682181,0.78173 -2.5710806,0.94268 -2.60337031,0.27879 -8.7142584,-0.0343 -10.4398815,-0.53484 -2.765375,-0.80219 -3.434853,-0.79474 -5.301686,0.059 -1.372325,0.6276 -1.84032,1.0062 -2.371231,1.91829 -1.21181,2.08185 -1.640064,2.38304 -3.388428,2.38304 -1.185741,0 -1.77626,-0.14499 -2.459424,-0.60386 z M 6.671275,112.26921 c -4.3092105,-0.69184 -8.2965634,-2.62505 -10.835468,-5.25343 -1.2008115,-1.24314 -1.6636868,-1.31068 -3.6406746,-0.53124 -4.0679794,1.60381 -11.9226014,2.165 -16.6123994,1.18689 -3.625291,-0.75609 -7.988014,-2.59526 -9.117929,-3.8438 -0.731732,-0.80855 -0.349173,-1.71609 0.998377,-2.36842 1.583458,-0.76655 2.17378,-0.70437 4.571852,0.48148 4.092874,2.02395 5.07229,2.25749 9.500825,2.26543 4.743202,0.009 6.35757,-0.34654 10.4321137,-2.29434 3.1972329,-1.52841 4.0795205,-1.72621 5.6892878,-1.27551 1.0482871,0.29351 1.2812474,0.51343 2.18333902,2.06118 1.41049908,2.42003 3.02992628,3.94601 5.37393618,5.06383 1.9636846,0.93644 2.0243986,0.94702 5.4254903,0.94497 3.55442,-0.002 5.34892,-0.30364 7.531343,-1.26539 2.491722,-1.09804 3.017285,-1.75478 3.567534,-4.45795 0.390167,-1.91676 5.653383,-1.62629 6.338464,0.34981 0.587229,1.69386 -1.910051,5.22369 -4.647261,6.56874 -3.876963,1.90513 -7.294795,2.64845 -11.99633,2.609 -1.8917708,-0.0159 -4.0348958,-0.12444 -4.7625,-0.24125 z M -3.0744298,94.415936 C -10.218947,86.833404 -18.107396,84.042754 -26.693408,86.060387 c -2.474878,0.581573 -2.759258,0.599448 -3.836459,0.241154 -1.2485,-0.415268 -2.036101,-1.396912 -1.739963,-2.168636 0.414665,-1.080598 4.649017,-2.215298 9.17548,-2.458796 8.638342,-0.464696 18.1130866,3.234809 24.5007209,9.566544 1.1788855,1.16857 2.3496191,2.446264 2.6016294,2.839321 0.9750849,1.520827 -0.4904263,2.854565 -3.13843455,2.856235 l -1.56837856,0.0011 -2.37561699,-2.521262 z M 9.5816917,88.636444 C 6.421384,87.811955 2.9423036,85.652362 1.0153803,83.319021 c -1.49121815,-1.805737 -1.96888632,-2.903638 -2.098511,-4.823328 -0.2001652,-2.964373 1.3486236,-5.01877 5.1747182,-6.864035 1.055026,-0.508823 1.9160622,-1.065652 1.9134137,-1.237401 -0.00265,-0.171746 -0.3598359,-0.836199 -0.79375,-1.47656 -0.6305153,-0.930502 -0.7889345,-1.446657 -0.7889345,-2.57048 0,-1.193133 0.1234175,-1.546754 0.8145674,-2.333929 1.1221323,-1.278038 3.1682716,-2.390565 5.6477689,-3.070806 2.378327,-0.652484 3.619982,-0.567557 4.555813,0.31161 1.274451,1.197284 0.421966,2.412346 -2.272797,3.239457 -1.670965,0.512874 -2.395352,1.169572 -2.395352,2.171523 0,0.521158 0.791718,1.352418 3.41436,3.584884 0.977173,0.831795 1.002311,1.04925 0.223661,1.934705 -0.421521,0.47934 -1.199685,0.829543 -2.665551,1.199597 -3.7166096,0.93825 -5.7446911,2.442789 -6.1357744,4.551841 -0.4969378,2.679914 2.1939647,5.663613 6.4187224,7.117141 2.163453,0.744339 2.761594,1.197718 2.663161,2.01863 -0.178337,1.487284 -2.58296,2.223643 -5.1092043,1.564574 z M -23.76409,77.606182 c -1.017063,-0.295838 -1.976093,-1.180137 -1.976093,-1.822108 0,-0.461598 1.611148,-2.202445 2.825639,-3.053107 1.397682,-0.978974 3.599907,-1.998956 5.680649,-2.631048 2.635017,-0.80047 7.218021,-1.284137 9.1996442,-0.970883 2.7126089,0.428805 3.7889894,2.60782 1.684909,3.41091 -0.4057438,0.154863 -2.1069353,0.33596 -3.7804252,0.402434 -2.442117,0.097 -3.401121,0.257368 -4.858498,0.812427 -1.750539,0.666716 -4.401918,2.358284 -4.401918,2.808406 0,0.343599 -2.213629,1.326584 -2.927805,1.300123 -0.35424,-0.01312 -1.004983,-0.128844 -1.446102,-0.257154 z M 34.771007,66.367389 c -2.919797,-0.580628 -7.26077,-2.418937 -8.586711,-3.636288 -1.397868,-1.283388 -0.06202,-2.902398 2.407877,-2.91829 1.116749,-0.0072 1.791843,0.214499 3.743685,1.229337 3.943729,2.050499 7.201422,2.531022 10.4032,1.534516 1.977014,-0.615316 2.954861,-1.27066 4.839962,-3.243702 1.48291,-1.552088 1.486842,-1.554094 3.042708,-1.553107 2.569718,0.0016 4.108059,1.345036 3.173498,2.771357 -1.719456,2.624223 -6.088489,5.198219 -10.073815,5.934946 -2.084827,0.3854 -6.724711,0.323831 -8.950404,-0.118769 z"
         id="path834"
         inkscape:connector-curvature="0" />
      <path
         style="fill:#1e6ca2;stroke-width:0.26458332"
         d="m 79.828567,236.34114 c -0.945886,-0.0901 -2.731823,-0.34887 -3.96875,-0.57512 -6.709551,-1.22722 -9.214959,-1.56114 -10.589707,-1.41137 -0.796859,0.0868 -3.613391,0.23355 -6.258963,0.32606 -4.06274,0.14208 -5.542711,0.078 -9.525,-0.41257 -6.013018,-0.74068 -12.503504,-2.23576 -15.637912,-3.60217 -0.47788,-0.20833 -0.988859,-0.37878 -1.135512,-0.37878 -0.713073,0 -7.701254,-3.45895 -9.882251,-4.89144 -7.064828,-4.64019 -11.165681,-10.24738 -12.072329,-16.50677 -0.598599,-4.13265 0.03475,-7.8268 2.037813,-11.88591 0.66771,-1.35308 1.140984,-2.5332 1.051713,-2.62247 -0.161184,-0.16118 -2.036212,0.31218 -2.826543,0.71358 -0.226957,0.11527 -1.1199261,0.35111 -1.9843755,0.52408 -0.8644493,0.17298 -2.5242255,0.53435 -3.6883922,0.80305 -6.5205424,1.50501 -20.2160503,1.5068 -26.7229163,0.004 -1.164167,-0.26896 -2.533386,-0.56742 -3.042709,-0.66322 -1.186995,-0.22329 -4.773506,-1.36506 -6.482291,-2.06364 -2.25665,-0.92256 -4.744079,-2.03909 -5.159375,-2.31588 -0.218282,-0.14549 -0.8169,-0.47033 -1.330263,-0.72188 -1.991162,-0.97569 -5.70376,-3.69743 -7.964716,-5.83902 -4.657461,-4.41157 -7.189519,-8.74137 -8.187457,-14.0005 -0.291571,-1.53658 -0.2345,-3.60297 0.18196,-6.5883 0.137025,-0.98225 0.0268,-1.29355 -1.032592,-2.91644 -4.051099,-6.2059 -3.687297,-13.27414 0.977817,-18.99782 1.78758,-2.1932 1.744834,-2.15236 1.744834,-1.66689 0,0.2355 -0.523756,1.04178 -1.163902,1.79173 -2.571332,3.01239 -3.688095,6.02504 -3.678907,9.92445 0.0085,3.61288 0.735897,5.91764 2.897363,9.18044 l 1.173942,1.77211 -0.432694,2.30914 c -0.613333,3.27315 -0.164577,6.34847 1.497127,10.25978 3.23248,7.60861 13.612664,15.55633 24.245416,18.5638 6.557973,1.85493 11.983302,2.57353 19.3824883,2.56726 7.34952708,-0.006 12.5344767,-0.7309 19.3783347,-2.70844 1.525365,-0.44076 2.90894,-0.80138 3.074612,-0.80138 0.456343,0 0.361074,0.75948 -0.194014,1.54666 -0.694026,0.98421 -1.815526,3.2542 -2.271186,4.59702 -1.573768,4.63788 -1.558946,8.56748 0.04868,12.90632 3.546642,9.57206 15.483165,17.13812 32.086489,20.33826 5.617467,1.08272 10.58114,1.34274 19.05,0.99796 3.714089,-0.15121 4.970481,-0.10925 6.35,0.21208 0.945885,0.22033 2.791354,0.58545 4.101042,0.81138 1.309687,0.22594 3.393281,0.58596 4.630208,0.80005 1.311148,0.22694 3.922731,0.38904 6.262828,0.38872 7.866949,-0.001 15.927303,-1.99503 20.885293,-5.16661 l 1.43498,-0.91794 4.56001,-0.25808 c 5.70875,-0.32309 10.94138,-1.10904 15.27564,-2.29443 4.73192,-1.29414 10.13792,-3.4573 12.50156,-5.00239 0.54571,-0.35672 1.49821,-0.97261 2.11667,-1.36864 2.77446,-1.7766 5.06613,-4.11332 7.80367,-7.95707 1.03631,-1.45508 1.371,-1.70233 4.33878,-3.20515 6.13258,-3.10544 9.64853,-6.70181 11.76381,-12.0329 l 0.85161,-2.14628 2.74893,-1.5875 c 3.66295,-2.11534 5.13921,-3.23573 7.20874,-5.47102 3.20221,-3.45868 4.81696,-7.0469 5.09374,-11.31905 0.18689,-2.88472 -0.22257,-5.30516 -1.39493,-8.24586 -0.50031,-1.25497 -0.90966,-2.39631 -0.90966,-2.53632 0,-0.14001 0.58959,-0.98922 1.3102,-1.88712 1.53274,-1.90982 2.78705,-4.40822 3.21504,-6.40383 0.46904,-2.18707 0.16573,-5.85483 -0.66633,-8.05763 -0.66996,-1.77365 -3.06872,-5.42396 -3.56429,-5.42396 -0.39619,0 -0.54529,1.09473 -0.52578,3.86041 0.0226,3.20903 -0.23228,4.22429 -1.65137,6.57717 l -1.10003,1.82388 0.12912,7.82604 c 0.0909,5.51137 0.0367,8.21731 -0.18341,9.14896 -1.12579,4.76547 -5.26993,8.816 -12.0444,11.77233 -1.09141,0.47628 -2.06036,0.98439 -2.15322,1.12913 -0.0929,0.14474 -0.24798,0.85972 -0.3447,1.58883 -0.21723,1.63756 -1.40146,4.29846 -2.70075,6.06845 -1.51025,2.05736 -4.1388,4.07008 -7.37332,5.64587 -3.49841,1.70434 -4.73781,2.71792 -6.63609,5.42696 -2.5209,3.59759 -5.53608,6.15005 -9.79878,8.295 -7.23352,3.63985 -16.40335,5.68393 -25.6296,5.7132 -3.42256,0.0108 -3.44605,0.0151 -4.74604,0.86577 -3.46235,2.26557 -6.467451,3.55906 -10.202921,4.39165 -4.807405,1.0715 -9.919208,1.35735 -14.684375,0.82113 -2.477482,-0.27879 -8.799388,-1.51273 -9.260417,-1.80749 -0.145521,-0.093 -4.729427,-0.17652 -10.186458,-0.18552 -9.77687,-0.0161 -13.437439,-0.27072 -16.271875,-1.13179 -0.436563,-0.13263 -1.448594,-0.38666 -2.248958,-0.56453 -0.800365,-0.17786 -2.407709,-0.6228 -3.571875,-0.98875 -12.955823,-4.07257 -20.689671,-10.53731 -21.93194,-18.33295 -0.08116,-0.50932 -0.160875,-13.42761 -0.177136,-28.70729 -0.03244,-30.48128 -0.115475,-28.74733 1.532507,-32.00166 3.081295,-6.08473 10.275506,-11.22068 19.674969,-14.04597 2.34583,-0.70512 4.448479,-1.16879 8.221784,-1.81308 l 2.293104,-0.39154 1.685158,-1.68516 c 3.584636,-3.58464 7.69502,-5.45529 15.027595,-6.83912 2.201506,-0.41548 4.353947,-0.59957 7.785569,-0.66588 2.608572,-0.0504 4.820914,-0.18382 4.916315,-0.29649 0.0954,-0.11267 0.49856,-0.97383 0.895908,-1.91369 2.186435,-5.17163 6.851661,-9.72077 13.710791,-13.36962 3.460395,-1.840829 9.127675,-3.985507 12.237765,-4.631157 1.69588,-0.352065 1.86989,-0.586893 2.05998,-2.779966 0.48982,-5.65137 5.75418,-11.52145 14.6183,-16.300296 1.45557,-0.784733 3.59869,-1.83329 4.7625,-2.330127 1.1638,-0.496835 2.32509,-1.081495 2.58064,-1.299245 0.56783,-0.48383 0.97919,-0.179244 0.44565,0.329975 -0.20962,0.200062 -1.40077,0.797153 -2.64701,1.326873 -5.7453,2.442059 -11.89301,6.434206 -14.81405,9.619818 -2.83362,3.090278 -4.20035,5.936945 -4.6325,9.648687 -0.0977,0.838666 -0.28789,1.593048 -0.42276,1.676405 -0.13487,0.08335 -1.10322,0.371187 -2.15189,0.639625 -2.18603,0.559583 -4.963741,1.460363 -6.179986,2.004097 -0.458554,0.204999 -0.929158,0.372729 -1.045784,0.372729 -0.116628,0 -1.575422,0.668012 -3.241768,1.484472 -2.727777,1.33653 -3.628363,1.8662 -6.862945,4.03641 -1.495705,1.00353 -5.155536,4.79491 -6.251199,6.47589 -0.55413,0.85015 -1.304245,2.2789 -1.666925,3.175 -0.36268,0.8961 -0.748586,1.80786 -0.857568,2.02614 -0.160562,0.3216 -1.12128,0.42858 -5.064945,0.56401 -7.417559,0.25473 -11.952237,1.11677 -16.755345,3.18519 -2.332967,1.00467 -3.739007,1.97703 -6.095122,4.2151 -2.053071,1.95022 -2.277298,2.04065 -6.490287,2.61735 -1.236927,0.16932 -2.78474,0.47089 -3.439584,0.67015 -4.462721,1.35792 -6.668563,2.10355 -7.9375,2.68309 -7.845015,3.58288 -12.890653,8.38207 -14.835573,14.11095 l -0.583859,1.71979 0.05583,27.91354 c 0.03534,17.67013 0.154683,28.39901 0.325218,29.23646 0.148167,0.7276 0.74949,2.32826 1.336275,3.55701 2.056898,4.30723 6.933436,8.26955 13.97802,11.35752 3.200455,1.4029 8.120658,2.98098 11.365759,3.64537 5.915184,1.21106 6.440416,1.25022 16.271875,1.21334 8.784196,-0.0329 9.689624,0.006 11.641667,0.5034 12.494731,3.18256 25.083259,1.85815 32.503866,-3.41964 l 1.3628,-0.96927 5.15937,-0.1969 c 2.83766,-0.10829 5.81422,-0.3099 6.61459,-0.44802 0.80036,-0.13812 2.2801,-0.38233 3.28831,-0.54268 4.87636,-0.77557 11.83902,-3.03715 14.70335,-4.77588 0.21828,-0.1325 0.87313,-0.48356 1.45521,-0.78014 2.31231,-1.17813 5.0011,-3.55822 6.74688,-5.97226 2.50839,-3.46857 4.58226,-5.36356 7.07017,-6.46034 2.85717,-1.25957 4.6972,-2.48775 6.57848,-4.39101 2.49786,-2.52703 3.35973,-4.31636 4.23977,-8.80214 0.0655,-0.33366 0.32382,-0.67863 0.57415,-0.7666 6.11044,-2.14746 10.91006,-5.88138 12.93262,-10.0611 l 0.99655,-2.05941 0.01,-8.86354 0.01,-8.86355 0.6957,-0.92604 c 1.51187,-2.01247 1.81785,-3.20122 1.81785,-7.06248 0,-1.97229 0.12343,-3.78628 0.27719,-4.07358 0.24505,-0.45788 0.33809,-0.47529 0.80228,-0.15016 0.2888,0.20229 1.03839,1.02882 1.66576,1.83674 3.6118,4.65129 4.42457,10.11491 2.23226,15.00573 -0.78006,1.74022 -2.53497,4.49792 -2.86233,4.49792 -0.098,0 -0.3143,0.29883 -0.48071,0.66406 -0.25037,0.54951 -0.19861,0.90323 0.30003,2.05052 1.743,4.01034 2.13783,7.84862 1.27007,12.34689 -0.56113,2.90875 -3.51564,7.64092 -6.26389,10.0327 -1.63182,1.42015 -4.07461,3.08369 -6.06879,4.13284 -1.01864,0.53591 -1.9535,1.073 -2.07745,1.19354 -0.12396,0.12053 -0.61435,1.16939 -1.08976,2.33079 -2.21313,5.40658 -6.66099,9.81915 -12.74084,12.63975 -1.9611,0.9098 -3.53882,2.05082 -3.53882,2.55929 0,0.90982 -5.36175,6.69514 -6.98099,7.53248 -0.426,0.22029 -0.90478,0.5086 -1.06397,0.64069 -0.98739,0.81931 -4.51318,2.83327 -5.97796,3.41467 -0.50932,0.20215 -1.06897,0.50701 -1.24366,0.67745 -0.17469,0.17044 -0.85092,0.38987 -1.50273,0.48762 -0.65182,0.0977 -1.46139,0.39225 -1.79905,0.65447 -0.33767,0.26222 -1.26878,0.56096 -2.06914,0.66386 -0.80037,0.1029 -1.73907,0.37178 -2.08601,0.59751 -0.34695,0.22572 -1.06132,0.44137 -1.5875,0.47922 -1.58775,0.1142 -3.24787,0.43013 -4.99204,0.95001 -0.90974,0.27116 -1.83155,0.42492 -2.04846,0.34169 -0.21691,-0.0832 -1.19898,-0.006 -2.18238,0.17239 -0.98339,0.17805 -3.27627,0.31173 -5.09528,0.29706 l -3.30729,-0.0267 -1.45521,0.89633 c -3.39425,2.09069 -6.303902,3.24294 -10.45104,4.13871 -1.309687,0.28289 -2.678906,0.62981 -3.042708,0.77093 -0.772689,0.29972 -10.450751,0.47744 -12.964583,0.23807 z M -17.802683,60.160116 c 0.521261,-0.336864 1.134234,-0.336864 0.926041,0 -0.08994,0.145521 -0.424386,0.26276 -0.74322,0.260532 -0.471283,-0.0033 -0.505475,-0.05202 -0.182821,-0.260532 z m 32.614931,-9.972937 c 0.257431,-0.06708 0.614619,-0.06267 0.79375,0.0098 0.17913,0.07248 -0.03149,0.127362 -0.468056,0.12197 -0.436563,-0.0054 -0.583126,-0.06469 -0.325694,-0.131774 z m 85.389232,-5.106051 c 0.35814,-0.233489 2.62205,-0.398375 2.35921,-0.171827 -0.0606,0.05226 -0.70556,0.170517 -1.43317,0.262793 -0.90313,0.114538 -1.196978,0.08567 -0.92604,-0.09097 z m 10.64948,-0.184645 c 0.25466,-0.06655 0.67138,-0.06655 0.92604,0 0.25467,0.06655 0.0463,0.121 -0.46302,0.121 -0.50932,0 -0.71768,-0.05445 -0.46302,-0.121 z m -5.68854,-0.257428 c 0.1819,-0.0734 0.47956,-0.0734 0.66146,0 0.1819,0.0734 0.0331,0.133452 -0.33073,0.133452 -0.3638,0 -0.51263,-0.06005 -0.33073,-0.133452 z m 2.38125,0 c 0.1819,-0.0734 0.47956,-0.0734 0.66146,0 0.1819,0.0734 0.0331,0.133452 -0.33073,0.133452 -0.3638,0 -0.51263,-0.06005 -0.33073,-0.133452 z M 58.794192,43.491367 c -0.674217,-0.289722 0.02138,-0.289722 0.926041,0 0.531741,0.170293 0.557686,0.213361 0.132292,0.219613 -0.291042,0.0043 -0.767292,-0.09455 -1.058333,-0.219613 z M 56.28065,42.9622 l -0.661458,-0.211836 0.661458,-0.0078 c 0.363802,-0.0043 0.899583,0.09455 1.190625,0.219613 l 0.529167,0.227391 -0.529167,-0.0078 C 57.180233,43.177536 56.644452,43.07871 56.28065,42.9622 Z m 37.835417,0 c -0.238467,-0.154109 -0.2711,-0.258097 -0.08176,-0.260532 0.173313,-0.0022 0.388699,0.115011 0.478637,0.260532 0.203014,0.328487 0.111421,0.328487 -0.396875,0 z m -63.54961,-0.18074 c 0.190995,-0.07643 0.419201,-0.06703 0.507119,0.02089 0.08792,0.08792 -0.06835,0.150453 -0.347265,0.138965 -0.308227,-0.0127 -0.37092,-0.07539 -0.159854,-0.159853 z m 20.422526,-0.61301 c -0.311525,-0.201324 -0.254627,-0.25062 0.264584,-0.229227 0.363802,0.01499 1.018646,0.118141 1.455208,0.229227 0.764617,0.194562 0.754904,0.202975 -0.264583,0.229228 -0.582084,0.01499 -1.236927,-0.08816 -1.455209,-0.229228 z M 38.685858,41.596317 c 1.712005,-0.226805 7.555913,-0.226123 9.260417,0.0011 0.727604,0.09699 -1.35599,0.175852 -4.630208,0.175258 -3.274219,-5.82e-4 -5.357813,-0.07995 -4.630209,-0.176339 z m 28.442709,0.04297 c 0.218281,-0.141064 0.635,-0.249935 0.926041,-0.241935 l 0.529167,0.01454 -0.529167,0.227391 c -0.291041,0.125065 -0.70776,0.233936 -0.926041,0.241936 -0.352777,0.01293 -0.352777,-0.01395 0,-0.241936 z m 23.01875,0 c -0.352777,-0.227982 -0.352777,-0.25648 0,-0.25648 0.218281,0 0.575468,0.115416 0.79375,0.25648 0.352777,0.227983 0.352777,0.256481 0,0.256481 -0.218282,0 -0.575469,-0.115416 -0.79375,-0.256481 z m -19.446875,-0.7939 c 2.441339,-0.64809 3.573433,-0.789827 6.023067,-0.754083 l 2.708183,0.03952 -3.042709,0.205826 c -1.673489,0.113204 -3.684037,0.333547 -4.467883,0.48965 -1.622685,0.323158 -2.412612,0.335511 -1.220658,0.01909 z m 14.948958,-0.0431 c -0.654844,-0.13742 -2.262187,-0.345533 -3.571875,-0.462474 l -2.38125,-0.212618 1.968447,-0.0377 c 1.912012,-0.03662 4.629256,0.32953 5.70447,0.768685 l 0.529166,0.216131 -0.529166,-0.01108 C 87.07815,41.057123 86.304244,40.939702 85.6494,40.802282 Z"
         id="path832"
         inkscape:connector-curvature="0" />
      <path
         style="fill:#a7002f;stroke-width:0.26458332"
         d="m -12.246433,186.71422 c -6.243289,-0.46594 -9.443868,-1.05303 -14.411222,-2.6435 -8.982646,-2.8761 -16.62687,-8.57369 -19.820132,-14.77285 -0.73662,-1.43001 -1.75198,-5.04684 -1.75198,-6.24075 0,-0.40425 0.18952,-1.54606 0.421155,-2.53736 0.653049,-2.79476 0.442551,-3.83566 -1.315537,-6.50529 -0.831255,-1.26225 -1.692024,-2.90331 -1.912819,-3.64681 -0.460733,-1.55146 -0.909629,-8.89051 -0.584642,-9.55838 0.119264,-0.2451 0.223702,-10.00822 0.232085,-21.69583 l 0.01524,-21.25021 0.603857,1.322917 c 0.332122,0.727604 1.156982,2.146183 1.833022,3.152403 1.558665,2.31991 1.693588,3.07701 1.092845,6.13235 -0.409621,2.0833 -0.436084,2.7095 -0.174496,4.12919 0.729014,3.9565 2.745372,7.41214 6.273847,10.75213 7.493121,7.09287 17.466599,10.73378 31.350858,11.44495 7.1121085,0.36429 7.5950578,0.36479 8.9958334,0.009 0.65484374,-0.16614 2.7384375,-0.58707 4.6302083,-0.93541 6.0588605,-1.11564 9.9070583,-2.29458 14.3193113,-4.38691 6.388097,-3.02929 11.026412,-7.28589 13.028316,-11.95614 0.505769,-1.17991 0.547333,-1.20804 2.854682,-1.93152 1.287793,-0.4038 3.445592,-1.25839 4.79511,-1.8991 2.038794,-0.96796 2.822093,-1.53274 4.632634,-3.34023 3.01329,-3.00821 3.714814,-4.46408 3.847272,-7.98419 0.05501,-1.46178 0.208545,-2.772365 0.341196,-2.91242 0.132652,-0.140054 1.043377,-0.337378 2.023833,-0.438499 9.835099,-1.014346 20.344556,-4.799277 26.918062,-9.694404 1.164167,-0.866929 3.247761,-2.77159 4.630209,-4.232582 l 2.513541,-2.656353 2.910417,-0.01492 c 13.6114,-0.06977 27.805417,-5.520938 36.266347,-13.92797 2.67487,-2.657832 4.14917,-4.598937 5.09142,-6.703528 l 0.50679,-1.13194 0.16824,0.841224 c 0.0925,0.462673 0.16825,3.371606 0.16825,6.464297 0,4.187264 -0.0845,5.68761 -0.33073,5.875826 -0.1819,0.139018 -1.28293,0.659612 -2.44673,1.156878 -7.54063,3.221937 -14.11522,8.037459 -17.13585,12.551065 -1.10243,1.647312 -2.09336,4.331113 -2.24495,6.080136 -0.19009,2.193073 -0.3641,2.427901 -2.05998,2.779966 -3.11009,0.64565 -8.777372,2.790328 -12.237767,4.631154 -6.85913,3.64885 -11.524356,8.19799 -13.710791,13.36962 -0.397348,0.93986 -0.800507,1.80102 -0.895908,1.91369 -0.0954,0.11267 -2.307743,0.24609 -4.916315,0.29649 -3.431622,0.0663 -5.584063,0.2504 -7.785569,0.66588 -7.332575,1.38383 -11.442959,3.25448 -15.027595,6.83912 l -1.685158,1.68516 -2.293104,0.39154 c -7.361994,1.25705 -11.466845,2.5489 -16.403822,5.1625 -6.691165,3.54226 -10.908755,8.04317 -12.614363,13.46175 -0.417478,1.3263 -0.453506,3.01384 -0.406691,19.05 0.02825,9.67713 -0.02582,17.79289 -0.120179,18.03502 -0.327726,0.84103 -5.266745,2.47301 -11.0033141,3.63578 -5.29973115,1.07422 -12.1648617,1.54055 -17.1749399,1.16664 z"
         id="path830"
         inkscape:connector-curvature="0" />
      <path
         style="fill:#06080b;stroke-width:0.26458332"
         d="m 78.373358,235.71234 c -1.018646,-0.18987 -2.983177,-0.53759 -4.365625,-0.77271 -1.382448,-0.23512 -3.287448,-0.60847 -4.233333,-0.82965 -1.382326,-0.32325 -2.62835,-0.36517 -6.35,-0.21365 -13.532795,0.55095 -22.071486,-0.73738 -32.279167,-4.87034 -12.729316,-5.15393 -20.100512,-13.56941 -20.100512,-22.94817 0,-3.44495 1.510469,-8.24831 3.465695,-11.02105 0.555088,-0.78718 0.650357,-1.54666 0.194014,-1.54666 -0.165672,0 -1.549247,0.36062 -3.074612,0.80138 -6.843858,1.97754 -12.02880763,2.70222 -19.3783347,2.70844 -7.3991863,0.006 -12.8245153,-0.71233 -19.3824883,-2.56726 -10.632752,-3.00747 -21.012936,-10.95519 -24.245416,-18.5638 -1.661704,-3.91131 -2.11046,-6.98663 -1.497127,-10.25978 l 0.432694,-2.30914 -1.173942,-1.77211 c -2.161466,-3.2628 -2.888851,-5.56756 -2.897363,-9.18044 -0.007,-2.96261 0.373167,-4.5424 1.68555,-7.00469 0.840252,-1.57647 2.492664,-3.71093 2.872854,-3.71093 0.111941,0 0.277863,1.69664 0.368717,3.77031 0.199613,4.55602 0.505418,5.62303 2.463896,8.59694 1.754835,2.66469 1.965309,3.70713 1.31253,6.50073 -0.231635,0.9913 -0.421155,2.13311 -0.421155,2.53736 0,1.19391 1.01536,4.81074 1.75198,6.24075 2.447788,4.75195 8.124833,9.73452 14.469402,12.69935 4.460251,2.08429 10.906967,3.88157 15.646699,4.36216 10.4256128,1.05711 20.0978534,0.14681 28.406815,-2.6735 1.701046,-0.57739 3.271406,-1.07368 3.489688,-1.10288 0.344953,-0.0462 0.415988,1.33148 0.542972,10.53024 0.14037,10.16819 0.169768,10.64791 0.749464,12.22977 2.435106,6.64487 9.916425,12.17287 21.329439,15.76047 1.164166,0.36595 2.77151,0.81089 3.571875,0.98875 0.800364,0.17787 1.812395,0.4319 2.248958,0.56453 2.834436,0.86107 6.495005,1.11569 16.271875,1.13179 5.457031,0.009 10.040937,0.0925 10.186458,0.18552 0.461029,0.29476 6.782935,1.5287 9.260417,1.80749 4.765167,0.53622 9.87697,0.25037 14.684375,-0.82113 3.73547,-0.83259 6.74057,-2.12608 10.20292,-4.39165 1.29999,-0.85063 1.32348,-0.85492 4.74604,-0.86577 9.22625,-0.0293 18.39608,-2.07335 25.6296,-5.7132 4.2627,-2.14495 7.27788,-4.69741 9.79878,-8.295 1.89828,-2.70904 3.13768,-3.72262 6.63609,-5.42696 3.23452,-1.57579 5.86307,-3.58851 7.37332,-5.64587 1.29929,-1.76999 2.48352,-4.43089 2.70075,-6.06845 0.0967,-0.72911 0.25183,-1.44409 0.3447,-1.58883 0.0929,-0.14474 1.06181,-0.65285 2.15322,-1.12913 6.77447,-2.95633 10.91861,-7.00686 12.0444,-11.77233 0.22009,-0.93165 0.27433,-3.63759 0.18341,-9.14896 l -0.12912,-7.82604 1.10003,-1.82388 c 1.41909,-2.35288 1.674,-3.36814 1.65137,-6.57717 -0.0195,-2.76568 0.12959,-3.86041 0.52578,-3.86041 0.49557,0 2.89433,3.65031 3.56429,5.42396 0.83206,2.2028 1.13537,5.87056 0.66633,8.05763 -0.42799,1.99561 -1.6823,4.49401 -3.21504,6.40383 -0.72061,0.8979 -1.3102,1.74711 -1.3102,1.88712 0,0.14001 0.40935,1.28135 0.90966,2.53632 1.17236,2.9407 1.58182,5.36114 1.39493,8.24586 -0.27678,4.27215 -1.89153,7.86037 -5.09374,11.31905 -2.06953,2.23529 -3.54579,3.35568 -7.20874,5.47102 l -2.74893,1.5875 -0.85161,2.14628 c -2.11528,5.33109 -5.63123,8.92746 -11.76381,12.0329 -2.96778,1.50282 -3.30247,1.75007 -4.33878,3.20515 -2.71856,3.81711 -5.04549,6.19627 -7.73752,7.91124 -0.58209,0.37081 -1.53459,0.9867 -2.11667,1.36863 -2.41466,1.58437 -7.77452,3.73734 -12.56771,5.04823 -4.33426,1.18539 -9.56689,1.97134 -15.27564,2.29443 l -4.56001,0.25808 -1.43498,0.91794 c -5.06614,3.24077 -13.079063,5.18845 -21.149876,5.14084 -2.353148,-0.0139 -5.11189,-0.18058 -6.130536,-0.37045 z"
         id="path828"
         inkscape:connector-curvature="0" />
    </g>
  </g>
</svg>
